<svg width="48" height="48" viewBox="0 0 48 48" fill="none" xmlns="http://www.w3.org/2000/svg">
<g clip-path="url(#clip0_3007_1741)">
<path d="M36 0H12C5.37258 0 0 5.37258 0 12V36C0 42.6274 5.37258 48 12 48H36C42.6274 48 48 42.6274 48 36V12C48 5.37258 42.6274 0 36 0Z" fill="#FFC876"/>
<path d="M19.4077 15.4284C20.9673 14.4942 22.751 14.0006 24.569 14C26.0815 13.9991 27.5747 14.3396 28.9373 14.9962C30.2999 15.6527 31.4967 16.6083 32.4386 17.7918C33.3805 18.9753 34.0431 20.3561 34.377 21.8312C34.7109 23.3064 34.7076 24.838 34.3672 26.3117C34.0269 27.7854 33.3582 29.1633 32.4112 30.3427C31.4642 31.522 30.2632 32.4724 28.8978 33.123C27.5323 33.7736 26.0376 34.1076 24.5251 34.1001C23.2627 34.0939 22.0151 33.8499 20.8469 33.3832L15.3538 34.2979C14.74 34.4001 14.2383 33.812 14.436 33.222L15.8412 29.0278C15.0585 27.6548 14.6089 26.1135 14.5334 24.5284C14.4468 22.7126 14.8545 20.9072 15.7128 19.3047C16.5712 17.7022 17.8482 16.3625 19.4077 15.4284Z" fill="#FFC876" stroke="#020202" stroke-width="2.475" stroke-linecap="round" stroke-linejoin="round"/>
<path d="M29.675 24.6584C29.4559 24.6584 29.2784 24.4808 29.2784 24.2617C29.2784 24.0427 29.4559 23.8651 29.675 23.8651" stroke="#020202" stroke-width="2.475" stroke-linecap="round" stroke-linejoin="round"/>
<path d="M29.6751 24.6585C29.8941 24.6585 30.0717 24.4809 30.0717 24.2619C30.0717 24.0428 29.8941 23.8652 29.6751 23.8652" stroke="#020202" stroke-width="2.475" stroke-linecap="round" stroke-linejoin="round"/>
<path d="M24.725 24.6584C24.5059 24.6584 24.3284 24.4808 24.3284 24.2617C24.3284 24.0427 24.5059 23.8651 24.725 23.8651" stroke="#020202" stroke-width="2.475" stroke-linecap="round" stroke-linejoin="round"/>
<path d="M24.7251 24.6585C24.9441 24.6585 25.1217 24.4809 25.1217 24.2619C25.1217 24.0428 24.9441 23.8652 24.7251 23.8652" stroke="#020202" stroke-width="2.475" stroke-linecap="round" stroke-linejoin="round"/>
<path d="M19.775 24.6584C19.5559 24.6584 19.3784 24.4808 19.3784 24.2617C19.3784 24.0427 19.5559 23.8651 19.775 23.8651" stroke="#020202" stroke-width="2.475" stroke-linecap="round" stroke-linejoin="round"/>
<path d="M19.7751 24.6585C19.9941 24.6585 20.1717 24.4809 20.1717 24.2619C20.1717 24.0428 19.9941 23.8652 19.7751 23.8652" stroke="#020202" stroke-width="2.475" stroke-linecap="round" stroke-linejoin="round"/>
</g>
<defs>
<clipPath id="clip0_3007_1741">
<rect width="48" height="48" fill="white"/>
</clipPath>
</defs>
</svg>
