<svg width="48" height="48" viewBox="0 0 48 48" fill="none" xmlns="http://www.w3.org/2000/svg">
<g clip-path="url(#clip0_3007_1776)">
<path d="M36 0H12C5.37258 0 0 5.37258 0 12V36C0 42.6274 5.37258 48 12 48H36C42.6274 48 48 42.6274 48 36V12C48 5.37258 42.6274 0 36 0Z" fill="#FFC876"/>
<path d="M28.345 33.6019C29.4834 33.4922 30.5971 33.3572 31.6713 33.2159C32.4098 33.1188 32.9889 32.5344 33.0813 31.7953C33.2139 30.7341 33.3434 29.6299 33.45 28.5001" stroke="#020202" stroke-width="2.475" stroke-linecap="round" stroke-linejoin="round"/>
<path d="M23.6187 27.5135C25.6691 27.5135 27.3312 25.8514 27.3312 23.801C27.3312 21.7506 25.6691 20.0885 23.6187 20.0885C21.5683 20.0885 19.9062 21.7506 19.9062 23.801C19.9062 25.8514 21.5683 27.5135 23.6187 27.5135Z" fill="#FFC876" stroke="#020202" stroke-width="2.475" stroke-linecap="round" stroke-linejoin="round"/>
<path d="M18.6687 13.4982C17.5304 13.6079 16.4166 13.7429 15.3425 13.8842C14.6039 13.9813 14.0248 14.5657 13.9325 15.3049C13.7998 16.366 13.6703 17.4702 13.5638 18.6" stroke="#020202" stroke-width="2.475" stroke-linecap="round" stroke-linejoin="round"/>
<path d="M28.345 13.4982C29.4834 13.6079 30.5971 13.7429 31.6713 13.8842C32.4098 13.9813 32.9889 14.5657 33.0813 15.3049C33.2139 16.366 33.3434 17.4702 33.45 18.6" stroke="#020202" stroke-width="2.475" stroke-linecap="round" stroke-linejoin="round"/>
<path d="M18.6687 33.6019C17.5304 33.4922 16.4166 33.3572 15.3425 33.2159C14.6039 33.1188 14.0248 32.5344 13.9325 31.7953C13.7998 30.7341 13.6703 29.6299 13.5638 28.5001" stroke="#020202" stroke-width="2.475" stroke-linecap="round" stroke-linejoin="round"/>
</g>
<defs>
<clipPath id="clip0_3007_1776">
<rect width="48" height="48" fill="white"/>
</clipPath>
</defs>
</svg>
