<svg width="48" height="48" viewBox="0 0 48 48" fill="none" xmlns="http://www.w3.org/2000/svg">
<g clip-path="url(#clip0_3006_1717)">
<path d="M36 0H12C5.37258 0 0 5.37258 0 12V36C0 42.6274 5.37258 48 12 48H36C42.6274 48 48 42.6274 48 36V12C48 5.37258 42.6274 0 36 0Z" fill="#AC6AFF"/>
<path d="M13.8047 26.6781C13.7426 27.1663 13.65 27.6599 13.65 28.1583C13.65 29.4152 13.8984 30.6423 14.1383 31.8272C14.1555 31.9118 14.1725 31.9961 14.1895 32.0803C14.3434 32.8446 14.9899 33.424 15.7681 33.4719C16.183 33.4974 16.6012 33.5243 17.0224 33.5513C19.1287 33.6868 21.3122 33.8271 23.5499 33.8271C25.7877 33.8271 27.9712 33.6868 30.0775 33.5513C30.4987 33.5243 30.9169 33.4974 31.3318 33.4719C32.11 33.424 32.7565 32.8446 32.9104 32.0803C32.9273 31.9961 32.9444 31.9118 32.9615 31.8272C33.2015 30.6423 33.4499 29.4152 33.4499 28.1583C33.4499 27.6599 33.338 27.1663 33.2759 26.6781H13.8047Z" fill="#AC6AFF" stroke="#020202" stroke-width="2.475"/>
<path d="M23.5501 16.9502C18.1775 16.9502 13.8222 21.3055 13.8222 26.6781H33.278C33.278 21.3055 28.9227 16.9502 23.5501 16.9502Z" fill="white" stroke="#020202" stroke-width="2.475" stroke-linecap="round" stroke-linejoin="round"/>
<path d="M26.7039 23.55C27.1569 23.55 27.524 23.1828 27.524 22.7299C27.524 22.277 27.1569 21.9098 26.7039 21.9098C26.251 21.9098 25.8839 22.277 25.8839 22.7299C25.8839 23.1828 26.251 23.55 26.7039 23.55Z" fill="#CDFF71" stroke="#020202" stroke-width="1.65" stroke-linecap="round" stroke-linejoin="round"/>
<path d="M20.3962 23.55C20.8491 23.55 21.2163 23.1828 21.2163 22.7299C21.2163 22.277 20.8491 21.9098 20.3962 21.9098C19.9433 21.9098 19.5761 22.277 19.5761 22.7299C19.5761 23.1828 19.9433 23.55 20.3962 23.55Z" fill="#CDFF71" stroke="#020202" stroke-width="1.65" stroke-linecap="round" stroke-linejoin="round"/>
<path d="M23.5499 16.9242L23.5499 13.2737" stroke="#020202" stroke-width="2.475" stroke-linecap="round" stroke-linejoin="round"/>
<path d="M20.0041 33.7282L20.0041 26.6771" stroke="#020202" stroke-width="2.475" stroke-linecap="round" stroke-linejoin="round"/>
<path d="M27.0956 33.7202L27.0956 26.6773" stroke="#020202" stroke-width="2.475" stroke-linecap="round" stroke-linejoin="round"/>
</g>
<defs>
<clipPath id="clip0_3006_1717">
<rect width="48" height="48" fill="white"/>
</clipPath>
</defs>
</svg>
