<svg width="48" height="48" viewBox="0 0 48 48" fill="none" xmlns="http://www.w3.org/2000/svg">
<g clip-path="url(#clip0_3007_1748)">
<path d="M36 0H12C5.37258 0 0 5.37258 0 12V36C0 42.6274 5.37258 48 12 48H36C42.6274 48 48 42.6274 48 36V12C48 5.37258 42.6274 0 36 0Z" fill="#FF776F"/>
<path d="M33.8 28.85C33.8 31.325 33.1593 32.9598 32.15 34.625L19.775 34.625L17.0551 31.9051C15.5164 30.3665 15.862 27.786 17.7513 26.7064L19.775 25.55L19.775 16.8875C19.775 15.2928 21.0678 14 22.6625 14C24.2572 14 25.55 15.2928 25.55 16.8875L25.55 22.2953C29.0115 22.6549 33.8 23.9 33.8 28.85Z" fill="#FF776F"/>
<path d="M32.15 34.625C33.1593 32.9598 33.8 31.325 33.8 28.85C33.8 23.9 29.0115 22.6549 25.55 22.2953L25.55 16.8875C25.55 15.2928 24.2572 14 22.6625 14V14C21.0678 14 19.775 15.2928 19.775 16.8875L19.775 25.55L17.7513 26.7064C15.862 27.786 15.5164 30.3665 17.0551 31.9051L19.775 34.625" stroke="#020202" stroke-width="2.475" stroke-linecap="round" stroke-linejoin="round"/>
</g>
<defs>
<clipPath id="clip0_3007_1748">
<rect width="48" height="48" fill="white"/>
</clipPath>
</defs>
</svg>
