<svg width="48" height="48" viewBox="0 0 48 48" fill="none" xmlns="http://www.w3.org/2000/svg">
<g clip-path="url(#clip0_3007_1726)">
<path d="M36 0H12C5.37258 0 0 5.37258 0 12V36C0 42.6274 5.37258 48 12 48H36C42.6274 48 48 42.6274 48 36V12C48 5.37258 42.6274 0 36 0Z" fill="#AC6AFF"/>
<path d="M14.2913 22.8406C14.4292 18.292 16.7432 13.2375 23.55 13.2375C30.3444 13.2375 32.6623 18.2735 32.8079 22.8156" stroke="#020202" stroke-width="2.475" stroke-linecap="round"/>
<path d="M13.65 25.6125C13.65 21.8411 16.1643 20.8982 17.4214 20.8982C19.6843 20.8982 20.25 22.7839 20.25 23.7268V27.4982C20.25 29.7611 18.3643 30.3268 17.4214 30.3268C16.1643 30.3268 13.65 29.3839 13.65 25.6125Z" fill="#AC6AFF"/>
<path d="M13.65 25.6125C13.65 21.8411 16.1643 20.8982 17.4214 20.8982C19.6843 20.8982 20.25 22.7839 20.25 23.7268V27.4982C20.25 29.7611 18.3643 30.3268 17.4214 30.3268C16.1643 30.3268 13.65 29.3839 13.65 25.6125Z" stroke="#020202" stroke-width="2.475"/>
<path d="M33.45 25.6125C33.45 21.8411 30.9357 20.8982 29.6786 20.8982C27.4157 20.8982 26.85 22.7839 26.85 23.7268V27.4982C26.85 29.7611 28.7357 30.3268 29.6786 30.3268C30.9357 30.3268 33.45 29.3839 33.45 25.6125Z" fill="#AC6AFF"/>
<path d="M33.45 25.6125C33.45 21.8411 30.9357 20.8982 29.6786 20.8982C27.4157 20.8982 26.85 22.7839 26.85 23.7268V27.4982C26.85 29.7611 28.7357 30.3268 29.6786 30.3268C30.9357 30.3268 33.45 29.3839 33.45 25.6125Z" stroke="#020202" stroke-width="2.475"/>
<path d="M32.9086 28.2679C32.9086 28.2679 33.0375 31.2328 31.5164 32.5219C29.9953 33.8109 26.1539 33.7851 26.1539 33.7851" stroke="#020202" stroke-width="2.475" stroke-linecap="round"/>
</g>
<defs>
<clipPath id="clip0_3007_1726">
<rect width="48" height="48" fill="white"/>
</clipPath>
</defs>
</svg>
