<svg width="62" height="24" viewBox="0 0 62 24" fill="none" xmlns="http://www.w3.org/2000/svg">
<path d="M26.6434 16.0588L29.6314 7.29884H32.4154L35.4874 16.0588H33.7354L31.1314 8.46284L31.7434 8.72684H30.2434L30.8674 8.46284L28.3474 16.0588H26.6434ZM28.7314 13.7308L29.2714 12.2908H32.8234L33.3514 13.7308H28.7314ZM40.5648 16.2868C39.7728 16.2868 39.0848 16.1468 38.5008 15.8668C37.9248 15.5868 37.4448 15.2228 37.0608 14.7748C36.6848 14.3188 36.4008 13.8308 36.2088 13.3108C36.0248 12.7828 35.9328 12.2748 35.9328 11.7868V11.5228C35.9328 10.9868 36.0288 10.4548 36.2208 9.92684C36.4128 9.39084 36.7008 8.90684 37.0848 8.47484C37.4768 8.04284 37.9608 7.69884 38.5368 7.44284C39.1128 7.17884 39.7888 7.04684 40.5648 7.04684C41.3328 7.04684 42.0048 7.17884 42.5808 7.44284C43.1568 7.69884 43.6368 8.04284 44.0208 8.47484C44.4128 8.90684 44.7048 9.39084 44.8968 9.92684C45.0888 10.4548 45.1848 10.9868 45.1848 11.5228V11.7868C45.1848 12.2748 45.0888 12.7828 44.8968 13.3108C44.7128 13.8308 44.4288 14.3188 44.0448 14.7748C43.6688 15.2228 43.1888 15.5868 42.6048 15.8668C42.0288 16.1468 41.3488 16.2868 40.5648 16.2868ZM40.5648 14.7028C41.0128 14.7028 41.4128 14.6228 41.7648 14.4628C42.1248 14.3028 42.4288 14.0828 42.6768 13.8028C42.9328 13.5148 43.1248 13.1908 43.2528 12.8308C43.3888 12.4628 43.4568 12.0748 43.4568 11.6668C43.4568 11.2268 43.3888 10.8228 43.2528 10.4548C43.1248 10.0868 42.9328 9.76684 42.6768 9.49484C42.4288 9.22284 42.1248 9.01084 41.7648 8.85884C41.4048 8.70684 41.0048 8.63084 40.5648 8.63084C40.1168 8.63084 39.7128 8.70684 39.3528 8.85884C38.9928 9.01084 38.6848 9.22284 38.4288 9.49484C38.1808 9.76684 37.9888 10.0868 37.8528 10.4548C37.7248 10.8228 37.6608 11.2268 37.6608 11.6668C37.6608 12.0748 37.7248 12.4628 37.8528 12.8308C37.9888 13.1908 38.1808 13.5148 38.4288 13.8028C38.6848 14.0828 38.9928 14.3028 39.3528 14.4628C39.7128 14.6228 40.1168 14.7028 40.5648 14.7028ZM48.6707 16.0588L45.8747 7.29884H47.6387L49.9547 14.8828L49.4507 14.6428H50.7467L50.2307 14.8828L52.3667 7.29884H54.0707L51.4787 16.0588H48.6707ZM57.3136 16.2628C56.4176 16.2628 55.7136 16.0748 55.2016 15.6988C54.6976 15.3148 54.4336 14.7868 54.4096 14.1148H55.9096C55.9336 14.3388 56.0576 14.5428 56.2816 14.7268C56.5056 14.9108 56.8576 15.0028 57.3376 15.0028C57.7376 15.0028 58.0536 14.9308 58.2856 14.7868C58.5256 14.6428 58.6456 14.4468 58.6456 14.1988C58.6456 13.9828 58.5536 13.8108 58.3696 13.6828C58.1936 13.5548 57.8896 13.4708 57.4576 13.4308L56.8816 13.3708C56.1536 13.2908 55.5936 13.0828 55.2016 12.7468C54.8096 12.4108 54.6136 11.9628 54.6136 11.4028C54.6136 10.9548 54.7256 10.5788 54.9496 10.2748C55.1736 9.97084 55.4816 9.74284 55.8736 9.59084C56.2736 9.43084 56.7296 9.35084 57.2416 9.35084C58.0416 9.35084 58.6896 9.52684 59.1856 9.87884C59.6816 10.2308 59.9416 10.7468 59.9656 11.4268H58.4656C58.4496 11.2028 58.3376 11.0108 58.1296 10.8508C57.9216 10.6908 57.6216 10.6108 57.2296 10.6108C56.8776 10.6108 56.6056 10.6788 56.4136 10.8148C56.2216 10.9508 56.1256 11.1268 56.1256 11.3428C56.1256 11.5508 56.2016 11.7108 56.3536 11.8228C56.5136 11.9348 56.7696 12.0108 57.1216 12.0508L57.6976 12.1108C58.4656 12.1908 59.0656 12.4028 59.4976 12.7468C59.9376 13.0908 60.1576 13.5548 60.1576 14.1388C60.1576 14.5708 60.0376 14.9468 59.7976 15.2668C59.5656 15.5788 59.2376 15.8228 58.8136 15.9988C58.3896 16.1748 57.8896 16.2628 57.3136 16.2628Z" fill="white"/>
<path d="M21.1614 11.5294C21.3789 9.33974 21.379 8.13707 21.1614 6.04301C19.0673 5.82542 17.8646 5.82554 15.675 6.04301" stroke="#00D800" stroke-width="2.82246" stroke-linecap="round" stroke-linejoin="round"/>
<path d="M21.154 6.07092L12.375 14.85L9.07499 11.55L1.64999 18.975" stroke="#00D800" stroke-width="2.475" stroke-linecap="round" stroke-linejoin="round"/>
</svg>
