<svg width="82" height="25" viewBox="0 0 82 25" fill="none" xmlns="http://www.w3.org/2000/svg">
<path d="M28.9714 17.1068V15.5228H30.7834C31.2394 15.5228 31.6434 15.4548 31.9954 15.3188C32.3554 15.1748 32.6594 14.9748 32.9074 14.7188C33.1554 14.4628 33.3434 14.1628 33.4714 13.8188C33.6074 13.4668 33.6754 13.0788 33.6754 12.6548C33.6754 12.2148 33.6074 11.8228 33.4714 11.4788C33.3434 11.1268 33.1554 10.8268 32.9074 10.5788C32.6594 10.3308 32.3554 10.1428 31.9954 10.0148C31.6434 9.88684 31.2394 9.82284 30.7834 9.82284H28.9714V8.23884H30.6754C31.4674 8.23884 32.1594 8.35484 32.7514 8.58684C33.3434 8.81884 33.8354 9.13884 34.2274 9.54684C34.6194 9.94684 34.9114 10.4068 35.1034 10.9268C35.3034 11.4388 35.4034 11.9708 35.4034 12.5228V12.7868C35.4034 13.3148 35.3034 13.8348 35.1034 14.3468C34.9114 14.8588 34.6194 15.3228 34.2274 15.7388C33.8354 16.1548 33.3434 16.4868 32.7514 16.7348C32.1594 16.9828 31.4674 17.1068 30.6754 17.1068H28.9714ZM27.5074 17.1068V8.23884H29.2114V17.1068H27.5074ZM36.7972 17.0588V10.5428H38.1172V13.3028H38.0812C38.0812 12.3668 38.2812 11.6588 38.6812 11.1788C39.0812 10.6988 39.6692 10.4588 40.4452 10.4588H40.6852V11.9108H40.2292C39.6692 11.9108 39.2332 12.0628 38.9212 12.3668C38.6172 12.6628 38.4652 13.0948 38.4652 13.6628V17.0588H36.7972ZM44.8863 17.2868C44.3103 17.2868 43.8023 17.1948 43.3623 17.0108C42.9223 16.8268 42.5503 16.5788 42.2463 16.2668C41.9423 15.9468 41.7103 15.5868 41.5503 15.1868C41.3983 14.7868 41.3223 14.3708 41.3223 13.9388V13.6868C41.3223 13.2388 41.4023 12.8148 41.5623 12.4148C41.7303 12.0068 41.9663 11.6468 42.2703 11.3348C42.5823 11.0148 42.9583 10.7668 43.3983 10.5908C43.8383 10.4068 44.3343 10.3148 44.8863 10.3148C45.4383 10.3148 45.9343 10.4068 46.3743 10.5908C46.8143 10.7668 47.1863 11.0148 47.4903 11.3348C47.8023 11.6468 48.0383 12.0068 48.1983 12.4148C48.3583 12.8148 48.4383 13.2388 48.4383 13.6868V13.9388C48.4383 14.3708 48.3583 14.7868 48.1983 15.1868C48.0463 15.5868 47.8183 15.9468 47.5143 16.2668C47.2103 16.5788 46.8383 16.8268 46.3983 17.0108C45.9583 17.1948 45.4543 17.2868 44.8863 17.2868ZM44.8863 15.8588C45.2943 15.8588 45.6383 15.7708 45.9183 15.5948C46.1983 15.4108 46.4103 15.1668 46.5543 14.8628C46.6983 14.5508 46.7703 14.1988 46.7703 13.8068C46.7703 13.4068 46.6943 13.0548 46.5423 12.7508C46.3983 12.4388 46.1823 12.1948 45.8943 12.0188C45.6143 11.8348 45.2783 11.7428 44.8863 11.7428C44.4943 11.7428 44.1543 11.8348 43.8663 12.0188C43.5863 12.1948 43.3703 12.4388 43.2183 12.7508C43.0663 13.0548 42.9903 13.4068 42.9903 13.8068C42.9903 14.1988 43.0623 14.5508 43.2063 14.8628C43.3583 15.1668 43.5743 15.4108 43.8543 15.5948C44.1343 15.7708 44.4783 15.8588 44.8863 15.8588ZM49.8988 19.4588V10.5428H51.2188V13.3508L51.0148 13.3388C51.0468 12.6748 51.1828 12.1188 51.4228 11.6708C51.6708 11.2228 51.9988 10.8908 52.4068 10.6748C52.8148 10.4508 53.2708 10.3388 53.7748 10.3388C54.2388 10.3388 54.6548 10.4228 55.0228 10.5908C55.3988 10.7588 55.7188 10.9948 55.9828 11.2988C56.2548 11.6028 56.4628 11.9588 56.6068 12.3668C56.7508 12.7668 56.8228 13.1988 56.8228 13.6628V13.9148C56.8228 14.3868 56.7508 14.8268 56.6068 15.2348C56.4708 15.6348 56.2668 15.9908 55.9948 16.3028C55.7308 16.6068 55.4108 16.8468 55.0348 17.0228C54.6588 17.1908 54.2388 17.2748 53.7748 17.2748C53.2868 17.2748 52.8388 17.1748 52.4308 16.9748C52.0308 16.7668 51.7068 16.4508 51.4588 16.0268C51.2108 15.5948 51.0708 15.0388 51.0388 14.3588L51.5668 15.1628V19.4588H49.8988ZM53.3548 15.8708C53.7148 15.8708 54.0268 15.7828 54.2908 15.6068C54.5628 15.4308 54.7748 15.1868 54.9268 14.8748C55.0788 14.5548 55.1548 14.1948 55.1548 13.7948C55.1548 13.3788 55.0788 13.0188 54.9268 12.7148C54.7748 12.4108 54.5628 12.1748 54.2908 12.0068C54.0268 11.8308 53.7148 11.7428 53.3548 11.7428C53.0268 11.7428 52.7228 11.8148 52.4428 11.9588C52.1708 12.1028 51.9468 12.3148 51.7708 12.5948C51.6028 12.8748 51.5188 13.2108 51.5188 13.6028V14.0828C51.5188 14.4588 51.6068 14.7788 51.7828 15.0428C51.9588 15.3068 52.1868 15.5108 52.4668 15.6548C52.7468 15.7988 53.0428 15.8708 53.3548 15.8708ZM61.4214 17.2868C60.8454 17.2868 60.3374 17.1948 59.8974 17.0108C59.4574 16.8268 59.0854 16.5788 58.7814 16.2668C58.4774 15.9468 58.2454 15.5868 58.0854 15.1868C57.9334 14.7868 57.8574 14.3708 57.8574 13.9388V13.6868C57.8574 13.2388 57.9374 12.8148 58.0974 12.4148C58.2654 12.0068 58.5014 11.6468 58.8054 11.3348C59.1174 11.0148 59.4934 10.7668 59.9334 10.5908C60.3734 10.4068 60.8694 10.3148 61.4214 10.3148C61.9734 10.3148 62.4694 10.4068 62.9094 10.5908C63.3494 10.7668 63.7214 11.0148 64.0254 11.3348C64.3374 11.6468 64.5734 12.0068 64.7334 12.4148C64.8934 12.8148 64.9734 13.2388 64.9734 13.6868V13.9388C64.9734 14.3708 64.8934 14.7868 64.7334 15.1868C64.5814 15.5868 64.3534 15.9468 64.0494 16.2668C63.7454 16.5788 63.3734 16.8268 62.9334 17.0108C62.4934 17.1948 61.9894 17.2868 61.4214 17.2868ZM61.4214 15.8588C61.8294 15.8588 62.1734 15.7708 62.4534 15.5948C62.7334 15.4108 62.9454 15.1668 63.0894 14.8628C63.2334 14.5508 63.3054 14.1988 63.3054 13.8068C63.3054 13.4068 63.2294 13.0548 63.0774 12.7508C62.9334 12.4388 62.7174 12.1948 62.4294 12.0188C62.1494 11.8348 61.8134 11.7428 61.4214 11.7428C61.0294 11.7428 60.6894 11.8348 60.4014 12.0188C60.1214 12.1948 59.9054 12.4388 59.7534 12.7508C59.6014 13.0548 59.5254 13.4068 59.5254 13.8068C59.5254 14.1988 59.5974 14.5508 59.7414 14.8628C59.8934 15.1668 60.1094 15.4108 60.3894 15.5948C60.6694 15.7708 61.0134 15.8588 61.4214 15.8588ZM66.578 17.0588V10.3148C66.578 9.57084 66.782 9.02284 67.19 8.67084C67.606 8.31084 68.218 8.13084 69.026 8.13084H69.638V9.41484H68.906C68.658 9.41484 68.466 9.48284 68.33 9.61884C68.202 9.74684 68.138 9.93084 68.138 10.1708V17.0588H66.578ZM70.826 17.0588V10.3868C70.826 9.64284 71.03 9.09484 71.438 8.74284C71.854 8.38284 72.466 8.20284 73.274 8.20284H74.066V9.48684H73.154C72.906 9.48684 72.714 9.55484 72.578 9.69084C72.45 9.81884 72.386 10.0028 72.386 10.2428V17.0588H70.826ZM65.774 11.8748V10.6508H74.174V11.8748H65.774ZM77.587 17.2628C76.691 17.2628 75.987 17.0748 75.475 16.6988C74.971 16.3148 74.707 15.7868 74.683 15.1148H76.183C76.207 15.3388 76.331 15.5428 76.555 15.7268C76.779 15.9108 77.131 16.0028 77.611 16.0028C78.011 16.0028 78.327 15.9308 78.559 15.7868C78.799 15.6428 78.919 15.4468 78.919 15.1988C78.919 14.9828 78.827 14.8108 78.643 14.6828C78.467 14.5548 78.163 14.4708 77.731 14.4308L77.155 14.3708C76.427 14.2908 75.867 14.0828 75.475 13.7468C75.083 13.4108 74.887 12.9628 74.887 12.4028C74.887 11.9548 74.999 11.5788 75.223 11.2748C75.447 10.9708 75.755 10.7428 76.147 10.5908C76.547 10.4308 77.003 10.3508 77.515 10.3508C78.315 10.3508 78.963 10.5268 79.459 10.8788C79.955 11.2308 80.215 11.7468 80.239 12.4268H78.739C78.723 12.2028 78.611 12.0108 78.403 11.8508C78.195 11.6908 77.895 11.6108 77.503 11.6108C77.151 11.6108 76.879 11.6788 76.687 11.8148C76.495 11.9508 76.399 12.1268 76.399 12.3428C76.399 12.5508 76.475 12.7108 76.627 12.8228C76.787 12.9348 77.043 13.0108 77.395 13.0508L77.971 13.1108C78.739 13.1908 79.339 13.4028 79.771 13.7468C80.211 14.0908 80.431 14.5548 80.431 15.1388C80.431 15.5708 80.311 15.9468 80.071 16.2668C79.839 16.5788 79.511 16.8228 79.087 16.9988C78.663 17.1748 78.163 17.2628 77.587 17.2628Z" fill="white"/>
<path d="M21.634 13.3367C21.8515 15.5263 21.8516 16.729 21.634 18.8231C19.54 19.0407 18.3373 19.0405 16.1476 18.8231" stroke="#FF1212" stroke-width="2.82246" stroke-linecap="round" stroke-linejoin="round"/>
<path d="M21.6256 18.7939L12.8477 10.0162L9.54768 13.3161L2.12268 5.89115" stroke="#FF1212" stroke-width="2.475" stroke-linecap="round" stroke-linejoin="round"/>
</svg>
