<svg width="1351" height="508" viewBox="0 0 1351 508" fill="none" xmlns="http://www.w3.org/2000/svg">
<mask id="path-1-outside-1_311_8" maskUnits="userSpaceOnUse" x="23" y="212" width="1211" height="210" fill="black">
<rect fill="white" x="23" y="212" width="1211" height="210"/>
<path d="M112.8 281.9V266.9C112.8 251.3 103.5 243.5 84.9 243.5C66.3 243.5 57 251.3 57 266.9V404.6C57 409.2 53 411.5 45 411.5C37 411.5 33 409.2 33 404.6V269.9C33 253.3 37.7 241.3 47.1 233.9C56.7 226.3 69.3 222.5 84.9 222.5C119.5 222.5 136.8 238.1 136.8 269.3V281.9C136.8 286.5 132.8 288.8 124.8 288.8C116.8 288.8 112.8 286.5 112.8 281.9ZM251.576 407H216.476C198.876 407 186.176 403.4 178.376 396.2C170.576 389 166.676 376.8 166.676 359.6V357.2C166.676 340.2 170.176 328.5 177.176 322.1C184.176 315.7 196.676 311.6 214.676 309.8L266.576 304.7V271.4C266.576 255.8 252.976 248 225.776 248H184.676C180.676 248 178.676 244.5 178.676 237.5C178.676 230.5 180.676 227 184.676 227H225.776C245.376 227 261.076 230.8 272.876 238.4C284.676 245.8 290.576 257.8 290.576 274.4V362.9C290.576 375.9 292.876 386.2 297.476 393.8C298.876 396.2 299.576 397.7 299.576 398.3C299.576 400.7 297.676 403.3 293.876 406.1C290.076 408.7 286.876 410 284.276 410C279.876 410 275.776 405.9 271.976 397.7C268.376 389.3 266.576 378.7 266.576 365.9V325.7L216.476 330.8C205.676 332 198.676 334.4 195.476 338C192.276 341.6 190.676 348 190.676 357.2V359.6C190.676 369.2 192.276 376 195.476 380C198.876 384 205.876 386 216.476 386H251.576C255.576 386 257.576 389.5 257.576 396.5C257.576 403.5 255.576 407 251.576 407ZM377.438 266.9V367.1C377.438 382.7 390.238 390.5 415.838 390.5C441.438 390.5 454.238 382.7 454.238 367.1V354.5C454.238 349.9 458.238 347.6 466.238 347.6C474.238 347.6 478.238 349.9 478.238 354.5V364.1C478.238 380.7 472.538 392.8 461.138 400.4C449.938 407.8 434.838 411.5 415.838 411.5C397.038 411.5 381.938 407.8 370.538 400.4C359.138 392.8 353.438 380.7 353.438 364.1V269.9C353.438 253.3 359.138 241.3 370.538 233.9C381.938 226.3 397.038 222.5 415.838 222.5C434.838 222.5 449.938 226.3 461.138 233.9C472.538 241.3 478.238 253.3 478.238 269.9V279.5C478.238 284.1 474.238 286.4 466.238 286.4C458.238 286.4 454.238 284.1 454.238 279.5V266.9C454.238 251.3 441.438 243.5 415.838 243.5C390.238 243.5 377.438 251.3 377.438 266.9ZM556.148 266.9V367.1C556.148 382.7 568.948 390.5 594.548 390.5C620.148 390.5 632.948 382.7 632.948 367.1V354.5C632.948 349.9 636.948 347.6 644.948 347.6C652.948 347.6 656.948 349.9 656.948 354.5V364.1C656.948 380.7 651.248 392.8 639.848 400.4C628.648 407.8 613.548 411.5 594.548 411.5C575.748 411.5 560.648 407.8 549.248 400.4C537.848 392.8 532.148 380.7 532.148 364.1V269.9C532.148 253.3 537.848 241.3 549.248 233.9C560.648 226.3 575.748 222.5 594.548 222.5C613.548 222.5 628.648 226.3 639.848 233.9C651.248 241.3 656.948 253.3 656.948 269.9V279.5C656.948 284.1 652.948 286.4 644.948 286.4C636.948 286.4 632.948 284.1 632.948 279.5V266.9C632.948 251.3 620.148 243.5 594.548 243.5C568.948 243.5 556.148 251.3 556.148 266.9ZM816.759 367.1V266.9C816.759 251.3 803.059 243.5 775.659 243.5C748.459 243.5 734.859 251.3 734.859 266.9V367.1C734.859 382.7 748.459 390.5 775.659 390.5C803.059 390.5 816.759 382.7 816.759 367.1ZM840.759 269.9V364.1C840.759 380.7 834.859 392.8 823.059 400.4C811.259 407.8 795.559 411.5 775.959 411.5C756.359 411.5 740.559 407.8 728.559 400.4C716.759 392.8 710.859 380.7 710.859 364.1V269.9C710.859 253.3 716.759 241.3 728.559 233.9C740.359 226.3 756.059 222.5 775.659 222.5C795.259 222.5 810.959 226.3 822.759 233.9C834.759 241.3 840.759 253.3 840.759 269.9ZM1006.6 367.1V266.9C1006.6 251.3 992.903 243.5 965.503 243.5C938.303 243.5 924.703 251.3 924.703 266.9V367.1C924.703 382.7 938.303 390.5 965.503 390.5C992.903 390.5 1006.6 382.7 1006.6 367.1ZM1030.6 269.9V364.1C1030.6 380.7 1024.7 392.8 1012.9 400.4C1001.1 407.8 985.403 411.5 965.803 411.5C946.203 411.5 930.403 407.8 918.403 400.4C906.603 392.8 900.703 380.7 900.703 364.1V269.9C900.703 253.3 906.603 241.3 918.403 233.9C930.203 226.3 945.903 222.5 965.503 222.5C985.103 222.5 1000.8 226.3 1012.6 233.9C1024.6 241.3 1030.6 253.3 1030.6 269.9ZM1223.45 269.9V401.6C1223.45 406.2 1219.45 408.5 1211.45 408.5C1203.45 408.5 1199.45 406.2 1199.45 401.6V266.9C1199.45 251.3 1185.75 243.5 1158.35 243.5C1131.15 243.5 1117.55 251.3 1117.55 266.9V401.6C1117.55 406.2 1113.55 408.5 1105.55 408.5C1097.55 408.5 1093.55 406.2 1093.55 401.6V269.9C1093.55 253.3 1099.45 241.3 1111.25 233.9C1123.05 226.3 1138.75 222.5 1158.35 222.5C1177.95 222.5 1193.65 226.3 1205.45 233.9C1217.45 241.3 1223.45 253.3 1223.45 269.9Z"/>
</mask>
<path d="M112.8 281.9V266.9C112.8 251.3 103.5 243.5 84.9 243.5C66.3 243.5 57 251.3 57 266.9V404.6C57 409.2 53 411.5 45 411.5C37 411.5 33 409.2 33 404.6V269.9C33 253.3 37.7 241.3 47.1 233.9C56.7 226.3 69.3 222.5 84.9 222.5C119.5 222.5 136.8 238.1 136.8 269.3V281.9C136.8 286.5 132.8 288.8 124.8 288.8C116.8 288.8 112.8 286.5 112.8 281.9ZM251.576 407H216.476C198.876 407 186.176 403.4 178.376 396.2C170.576 389 166.676 376.8 166.676 359.6V357.2C166.676 340.2 170.176 328.5 177.176 322.1C184.176 315.7 196.676 311.6 214.676 309.8L266.576 304.7V271.4C266.576 255.8 252.976 248 225.776 248H184.676C180.676 248 178.676 244.5 178.676 237.5C178.676 230.5 180.676 227 184.676 227H225.776C245.376 227 261.076 230.8 272.876 238.4C284.676 245.8 290.576 257.8 290.576 274.4V362.9C290.576 375.9 292.876 386.2 297.476 393.8C298.876 396.2 299.576 397.7 299.576 398.3C299.576 400.7 297.676 403.3 293.876 406.1C290.076 408.7 286.876 410 284.276 410C279.876 410 275.776 405.9 271.976 397.7C268.376 389.3 266.576 378.7 266.576 365.9V325.7L216.476 330.8C205.676 332 198.676 334.4 195.476 338C192.276 341.6 190.676 348 190.676 357.2V359.6C190.676 369.2 192.276 376 195.476 380C198.876 384 205.876 386 216.476 386H251.576C255.576 386 257.576 389.5 257.576 396.5C257.576 403.5 255.576 407 251.576 407ZM377.438 266.9V367.1C377.438 382.7 390.238 390.5 415.838 390.5C441.438 390.5 454.238 382.7 454.238 367.1V354.5C454.238 349.9 458.238 347.6 466.238 347.6C474.238 347.6 478.238 349.9 478.238 354.5V364.1C478.238 380.7 472.538 392.8 461.138 400.4C449.938 407.8 434.838 411.5 415.838 411.5C397.038 411.5 381.938 407.8 370.538 400.4C359.138 392.8 353.438 380.7 353.438 364.1V269.9C353.438 253.3 359.138 241.3 370.538 233.9C381.938 226.3 397.038 222.5 415.838 222.5C434.838 222.5 449.938 226.3 461.138 233.9C472.538 241.3 478.238 253.3 478.238 269.9V279.5C478.238 284.1 474.238 286.4 466.238 286.4C458.238 286.4 454.238 284.1 454.238 279.5V266.9C454.238 251.3 441.438 243.5 415.838 243.5C390.238 243.5 377.438 251.3 377.438 266.9ZM556.148 266.9V367.1C556.148 382.7 568.948 390.5 594.548 390.5C620.148 390.5 632.948 382.7 632.948 367.1V354.5C632.948 349.9 636.948 347.6 644.948 347.6C652.948 347.6 656.948 349.9 656.948 354.5V364.1C656.948 380.7 651.248 392.8 639.848 400.4C628.648 407.8 613.548 411.5 594.548 411.5C575.748 411.5 560.648 407.8 549.248 400.4C537.848 392.8 532.148 380.7 532.148 364.1V269.9C532.148 253.3 537.848 241.3 549.248 233.9C560.648 226.3 575.748 222.5 594.548 222.5C613.548 222.5 628.648 226.3 639.848 233.9C651.248 241.3 656.948 253.3 656.948 269.9V279.5C656.948 284.1 652.948 286.4 644.948 286.4C636.948 286.4 632.948 284.1 632.948 279.5V266.9C632.948 251.3 620.148 243.5 594.548 243.5C568.948 243.5 556.148 251.3 556.148 266.9ZM816.759 367.1V266.9C816.759 251.3 803.059 243.5 775.659 243.5C748.459 243.5 734.859 251.3 734.859 266.9V367.1C734.859 382.7 748.459 390.5 775.659 390.5C803.059 390.5 816.759 382.7 816.759 367.1ZM840.759 269.9V364.1C840.759 380.7 834.859 392.8 823.059 400.4C811.259 407.8 795.559 411.5 775.959 411.5C756.359 411.5 740.559 407.8 728.559 400.4C716.759 392.8 710.859 380.7 710.859 364.1V269.9C710.859 253.3 716.759 241.3 728.559 233.9C740.359 226.3 756.059 222.5 775.659 222.5C795.259 222.5 810.959 226.3 822.759 233.9C834.759 241.3 840.759 253.3 840.759 269.9ZM1006.6 367.1V266.9C1006.6 251.3 992.903 243.5 965.503 243.5C938.303 243.5 924.703 251.3 924.703 266.9V367.1C924.703 382.7 938.303 390.5 965.503 390.5C992.903 390.5 1006.6 382.7 1006.6 367.1ZM1030.6 269.9V364.1C1030.6 380.7 1024.7 392.8 1012.9 400.4C1001.1 407.8 985.403 411.5 965.803 411.5C946.203 411.5 930.403 407.8 918.403 400.4C906.603 392.8 900.703 380.7 900.703 364.1V269.9C900.703 253.3 906.603 241.3 918.403 233.9C930.203 226.3 945.903 222.5 965.503 222.5C985.103 222.5 1000.8 226.3 1012.6 233.9C1024.6 241.3 1030.6 253.3 1030.6 269.9ZM1223.45 269.9V401.6C1223.45 406.2 1219.45 408.5 1211.45 408.5C1203.45 408.5 1199.45 406.2 1199.45 401.6V266.9C1199.45 251.3 1185.75 243.5 1158.35 243.5C1131.15 243.5 1117.55 251.3 1117.55 266.9V401.6C1117.55 406.2 1113.55 408.5 1105.55 408.5C1097.55 408.5 1093.55 406.2 1093.55 401.6V269.9C1093.55 253.3 1099.45 241.3 1111.25 233.9C1123.05 226.3 1138.75 222.5 1158.35 222.5C1177.95 222.5 1193.65 226.3 1205.45 233.9C1217.45 241.3 1223.45 253.3 1223.45 269.9Z" fill="white"/>
<path d="M47.1 233.9L53.2856 241.757L53.2963 241.749L53.307 241.74L47.1 233.9ZM122.8 281.9V266.9H102.8V281.9H122.8ZM122.8 266.9C122.8 257.052 119.781 248.003 112.251 241.688C105.058 235.655 95.3545 233.5 84.9 233.5V253.5C93.0455 253.5 97.2917 255.245 99.3989 257.012C101.169 258.497 102.8 261.148 102.8 266.9H122.8ZM84.9 233.5C74.4455 233.5 64.7417 235.655 57.5489 241.688C50.0191 248.003 47 257.052 47 266.9H67C67 261.148 68.6309 258.497 70.4011 257.012C72.5083 255.245 76.7545 253.5 84.9 253.5V233.5ZM47 266.9V404.6H67V266.9H47ZM47 404.6C47 404.263 47.0872 403.486 47.5986 402.603C48.1091 401.723 48.7355 401.267 49.0153 401.106C49.2332 400.981 49.1089 401.105 48.3676 401.248C47.6442 401.386 46.5502 401.5 45 401.5V421.5C49.6306 421.5 54.7276 420.892 58.9847 418.444C64.0755 415.517 67 410.493 67 404.6H47ZM45 401.5C43.4498 401.5 42.3558 401.386 41.6324 401.248C40.8911 401.105 40.7668 400.981 40.9847 401.106C41.2645 401.267 41.8909 401.723 42.4014 402.603C42.9128 403.486 43 404.263 43 404.6H23C23 410.493 25.9245 415.517 31.0153 418.444C35.2724 420.892 40.3694 421.5 45 421.5V401.5ZM43 404.6V269.9H23V404.6H43ZM43 269.9C43 255.107 47.1349 246.599 53.2856 241.757L40.9144 226.043C28.2651 236.001 23 251.493 23 269.9H43ZM53.307 241.74C60.7046 235.884 70.9262 232.5 84.9 232.5V212.5C67.6739 212.5 52.6954 216.716 40.893 226.06L53.307 241.74ZM84.9 232.5C100.899 232.5 111.032 236.129 117.128 241.627C123.028 246.947 126.8 255.524 126.8 269.3H146.8C146.8 251.876 141.922 237.053 130.522 226.773C119.318 216.671 103.501 212.5 84.9 212.5V232.5ZM126.8 269.3V281.9H146.8V269.3H126.8ZM126.8 281.9C126.8 281.563 126.887 280.786 127.399 279.903C127.909 279.023 128.535 278.567 128.815 278.406C129.033 278.281 128.909 278.405 128.168 278.548C127.444 278.686 126.35 278.8 124.8 278.8V298.8C129.431 298.8 134.528 298.192 138.785 295.744C143.876 292.817 146.8 287.793 146.8 281.9H126.8ZM124.8 278.8C123.25 278.8 122.156 278.686 121.432 278.548C120.691 278.405 120.567 278.281 120.785 278.406C121.065 278.567 121.691 279.023 122.201 279.903C122.713 280.786 122.8 281.563 122.8 281.9H102.8C102.8 287.793 105.725 292.817 110.815 295.744C115.072 298.192 120.169 298.8 124.8 298.8V278.8ZM178.376 396.2L171.593 403.548L171.593 403.548L178.376 396.2ZM177.176 322.1L170.428 314.72L170.428 314.72L177.176 322.1ZM214.676 309.8L213.698 299.848L213.689 299.849L213.681 299.85L214.676 309.8ZM266.576 304.7L267.554 314.652L276.576 313.765V304.7H266.576ZM272.876 238.4L267.461 246.807L267.512 246.84L267.563 246.872L272.876 238.4ZM297.476 393.8L306.114 388.761L306.073 388.691L306.031 388.622L297.476 393.8ZM293.876 406.1L299.523 414.353L299.667 414.254L299.808 414.151L293.876 406.1ZM271.976 397.7L262.784 401.639L262.842 401.773L262.903 401.905L271.976 397.7ZM266.576 325.7H276.576V314.63L265.563 315.751L266.576 325.7ZM216.476 330.8L215.463 320.851L215.417 320.856L215.371 320.861L216.476 330.8ZM195.476 338L202.95 344.644L202.95 344.644L195.476 338ZM195.476 380L187.667 386.247L187.76 386.363L187.856 386.476L195.476 380ZM251.576 397H216.476V417H251.576V397ZM216.476 397C199.84 397 190.223 393.527 185.159 388.852L171.593 403.548C182.129 413.273 197.911 417 216.476 417V397ZM185.159 388.852C180.382 384.443 176.676 375.687 176.676 359.6H156.676C156.676 377.913 160.77 393.557 171.593 403.548L185.159 388.852ZM176.676 359.6V357.2H156.676V359.6H176.676ZM176.676 357.2C176.676 340.944 180.141 332.938 183.923 329.48L170.428 314.72C160.21 324.062 156.676 339.456 156.676 357.2H176.676ZM183.923 329.48C188.431 325.359 198.151 321.502 215.671 319.75L213.681 299.85C195.201 301.698 179.921 306.041 170.428 314.72L183.923 329.48ZM215.654 319.752L267.554 314.652L265.598 294.748L213.698 299.848L215.654 319.752ZM276.576 304.7V271.4H256.576V304.7H276.576ZM276.576 271.4C276.576 259.995 271.24 250.847 261.351 245.175C252.297 239.983 240.004 238 225.776 238V258C238.748 258 246.855 259.917 251.401 262.525C255.112 264.653 256.576 267.205 256.576 271.4H276.576ZM225.776 238H184.676V258H225.776V238ZM184.676 238C185.174 238 186.091 238.123 187.089 238.706C188.084 239.286 188.629 240.012 188.858 240.414C189.053 240.754 188.981 240.781 188.874 240.223C188.771 239.682 188.676 238.803 188.676 237.5H168.676C168.676 241.625 169.208 246.336 171.493 250.336C174.257 255.172 179.053 258 184.676 258V238ZM188.676 237.5C188.676 236.197 188.771 235.318 188.874 234.777C188.981 234.219 189.053 234.246 188.858 234.586C188.629 234.988 188.084 235.714 187.089 236.294C186.091 236.877 185.174 237 184.676 237V217C179.053 217 174.257 219.828 171.493 224.664C169.208 228.664 168.676 233.375 168.676 237.5H188.676ZM184.676 237H225.776V217H184.676V237ZM225.776 237C244.187 237 257.797 240.583 267.461 246.807L278.291 229.993C264.355 221.017 246.565 217 225.776 217V237ZM267.563 246.872C275.849 252.069 280.576 260.473 280.576 274.4H300.576C300.576 255.127 293.502 239.531 278.189 229.928L267.563 246.872ZM280.576 274.4V362.9H300.576V274.4H280.576ZM280.576 362.9C280.576 376.932 283.035 389.254 288.921 398.978L306.031 388.622C302.716 383.146 300.576 374.868 300.576 362.9H280.576ZM288.838 398.839C289.144 399.364 289.393 399.806 289.59 400.172C289.79 400.544 289.916 400.798 289.989 400.954C290.024 401.029 290.037 401.06 290.034 401.053C290.032 401.049 290.002 400.975 289.958 400.844C289.917 400.721 289.836 400.465 289.761 400.108C289.722 399.924 289.677 399.683 289.642 399.396C289.607 399.112 289.576 398.74 289.576 398.3H309.576C309.576 396.522 309.123 395.093 308.931 394.519C308.679 393.763 308.379 393.066 308.113 392.496C307.577 391.347 306.879 390.074 306.114 388.761L288.838 398.839ZM289.576 398.3C289.576 396.76 290.198 395.984 290.077 396.15C290.026 396.219 289.857 396.432 289.492 396.778C289.131 397.12 288.626 397.546 287.944 398.049L299.808 414.151C303.896 411.139 309.576 405.912 309.576 398.3H289.576ZM288.229 397.847C286.737 398.868 285.623 399.451 284.862 399.76C284.086 400.076 283.938 400 284.276 400V420C289.922 420 295.184 417.321 299.523 414.353L288.229 397.847ZM284.276 400C285.49 400 285.765 400.647 284.972 399.854C284.083 398.965 282.7 397.058 281.049 393.495L262.903 401.905C265.052 406.542 267.619 410.785 270.83 413.996C274.137 417.303 278.661 420 284.276 420V400ZM281.167 393.761C278.269 386.998 276.576 377.851 276.576 365.9H256.576C256.576 379.549 258.483 391.602 262.784 401.639L281.167 393.761ZM276.576 365.9V325.7H256.576V365.9H276.576ZM265.563 315.751L215.463 320.851L217.489 340.749L267.589 335.649L265.563 315.751ZM215.371 320.861C209.548 321.508 204.316 322.52 199.883 324.041C195.553 325.525 191.2 327.758 188.002 331.356L202.95 344.644C202.919 344.678 203.086 344.481 203.658 344.144C204.232 343.807 205.104 343.393 206.369 342.959C208.935 342.08 212.603 341.292 217.58 340.739L215.371 320.861ZM188.002 331.356C182.23 337.849 180.676 347.497 180.676 357.2H200.676C200.676 348.503 202.322 345.351 202.95 344.644L188.002 331.356ZM180.676 357.2V359.6H200.676V357.2H180.676ZM180.676 359.6C180.676 369.745 182.254 379.481 187.667 386.247L203.284 373.753C202.297 372.519 200.676 368.655 200.676 359.6H180.676ZM187.856 386.476C191.241 390.459 195.84 392.776 200.529 394.115C205.227 395.458 210.629 396 216.476 396V376C211.722 376 208.324 375.542 206.023 374.885C203.712 374.224 203.11 373.541 203.095 373.524L187.856 386.476ZM216.476 396H251.576V376H216.476V396ZM251.576 396C251.078 396 250.161 395.877 249.162 395.294C248.167 394.714 247.623 393.988 247.393 393.586C247.199 393.246 247.271 393.219 247.377 393.777C247.48 394.318 247.576 395.197 247.576 396.5H267.576C267.576 392.375 267.044 387.664 264.758 383.664C261.995 378.828 257.199 376 251.576 376V396ZM247.576 396.5C247.576 397.803 247.48 398.682 247.377 399.223C247.271 399.781 247.199 399.754 247.393 399.414C247.623 399.012 248.167 398.286 249.162 397.706C250.161 397.123 251.078 397 251.576 397V417C257.199 417 261.995 414.172 264.758 409.336C267.044 405.336 267.576 400.625 267.576 396.5H247.576ZM461.138 400.4L466.65 408.743L466.667 408.732L466.685 408.721L461.138 400.4ZM370.538 400.4L364.99 408.721L365.041 408.754L365.093 408.788L370.538 400.4ZM370.538 233.9L375.982 242.288L376.034 242.254L376.085 242.22L370.538 233.9ZM461.138 233.9L455.522 242.175L455.607 242.232L455.693 242.288L461.138 233.9ZM367.438 266.9V367.1H387.438V266.9H367.438ZM367.438 367.1C367.438 378.215 372.31 387.386 381.834 393.189C390.554 398.503 402.347 400.5 415.838 400.5V380.5C403.728 380.5 396.321 378.597 392.241 376.111C388.965 374.114 387.438 371.585 387.438 367.1H367.438ZM415.838 400.5C429.328 400.5 441.121 398.503 449.841 393.189C459.365 387.386 464.238 378.215 464.238 367.1H444.238C444.238 371.585 442.71 374.114 439.434 376.111C435.354 378.597 427.947 380.5 415.838 380.5V400.5ZM464.238 367.1V354.5H444.238V367.1H464.238ZM464.238 354.5C464.238 354.837 464.15 355.614 463.639 356.497C463.128 357.377 462.502 357.833 462.222 357.994C462.004 358.119 462.129 357.995 462.87 357.852C463.593 357.714 464.687 357.6 466.238 357.6V337.6C461.607 337.6 456.51 338.208 452.253 340.656C447.162 343.583 444.238 348.607 444.238 354.5H464.238ZM466.238 357.6C467.788 357.6 468.882 357.714 469.605 357.852C470.346 357.995 470.471 358.119 470.253 357.994C469.973 357.833 469.347 357.377 468.836 356.497C468.325 355.614 468.238 354.837 468.238 354.5H488.238C488.238 348.607 485.313 343.583 480.222 340.656C475.965 338.208 470.868 337.6 466.238 337.6V357.6ZM468.238 354.5V364.1H488.238V354.5H468.238ZM468.238 364.1C468.238 378.167 463.596 386.743 455.591 392.079L466.685 408.721C481.479 398.857 488.238 383.233 488.238 364.1H468.238ZM455.625 392.057C446.608 398.014 433.658 401.5 415.838 401.5V421.5C436.017 421.5 453.267 417.586 466.65 408.743L455.625 392.057ZM415.838 401.5C398.256 401.5 385.251 398.029 375.982 392.012L365.093 408.788C378.624 417.571 395.819 421.5 415.838 421.5V401.5ZM376.085 392.079C368.079 386.743 363.438 378.167 363.438 364.1H343.438C343.438 383.233 350.196 398.857 364.99 408.721L376.085 392.079ZM363.438 364.1V269.9H343.438V364.1H363.438ZM363.438 269.9C363.438 255.826 368.077 247.419 375.982 242.288L365.093 225.512C350.198 235.181 343.438 250.774 343.438 269.9H363.438ZM376.085 242.22C385.335 236.054 398.299 232.5 415.838 232.5V212.5C395.776 212.5 378.54 216.546 364.991 225.579L376.085 242.22ZM415.838 232.5C433.615 232.5 446.524 236.069 455.522 242.175L466.753 225.625C453.351 216.531 436.06 212.5 415.838 212.5V232.5ZM455.693 242.288C463.598 247.419 468.238 255.826 468.238 269.9H488.238C488.238 250.774 481.477 235.181 466.582 225.512L455.693 242.288ZM468.238 269.9V279.5H488.238V269.9H468.238ZM468.238 279.5C468.238 279.163 468.325 278.386 468.836 277.503C469.347 276.623 469.973 276.167 470.253 276.006C470.471 275.881 470.346 276.005 469.605 276.148C468.882 276.286 467.788 276.4 466.238 276.4V296.4C470.868 296.4 475.965 295.792 480.222 293.344C485.313 290.417 488.238 285.393 488.238 279.5H468.238ZM466.238 276.4C464.687 276.4 463.593 276.286 462.87 276.148C462.129 276.005 462.004 275.881 462.222 276.006C462.502 276.167 463.128 276.623 463.639 277.503C464.15 278.386 464.238 279.163 464.238 279.5H444.238C444.238 285.393 447.162 290.417 452.253 293.344C456.51 295.792 461.607 296.4 466.238 296.4V276.4ZM464.238 279.5V266.9H444.238V279.5H464.238ZM464.238 266.9C464.238 255.785 459.365 246.614 449.841 240.811C441.121 235.497 429.328 233.5 415.838 233.5V253.5C427.947 253.5 435.354 255.403 439.434 257.889C442.71 259.886 444.238 262.415 444.238 266.9H464.238ZM415.838 233.5C402.347 233.5 390.554 235.497 381.834 240.811C372.31 246.614 367.438 255.785 367.438 266.9H387.438C387.438 262.415 388.965 259.886 392.241 257.889C396.321 255.403 403.728 253.5 415.838 253.5V233.5ZM639.848 400.4L645.361 408.743L645.378 408.732L645.395 408.721L639.848 400.4ZM549.248 400.4L543.701 408.721L543.752 408.754L543.804 408.788L549.248 400.4ZM549.248 233.9L554.693 242.288L554.744 242.254L554.795 242.22L549.248 233.9ZM639.848 233.9L634.233 242.175L634.318 242.232L634.404 242.288L639.848 233.9ZM546.148 266.9V367.1H566.148V266.9H546.148ZM546.148 367.1C546.148 378.215 551.021 387.386 560.545 393.189C569.265 398.503 581.058 400.5 594.548 400.5V380.5C582.438 380.5 575.032 378.597 570.952 376.111C567.676 374.114 566.148 371.585 566.148 367.1H546.148ZM594.548 400.5C608.038 400.5 619.832 398.503 628.552 393.189C638.076 387.386 642.948 378.215 642.948 367.1H622.948C622.948 371.585 621.421 374.114 618.145 376.111C614.065 378.597 606.658 380.5 594.548 380.5V400.5ZM642.948 367.1V354.5H622.948V367.1H642.948ZM642.948 354.5C642.948 354.837 642.861 355.614 642.35 356.497C641.839 357.377 641.213 357.833 640.933 357.994C640.715 358.119 640.84 357.995 641.581 357.852C642.304 357.714 643.398 357.6 644.948 357.6V337.6C640.318 337.6 635.221 338.208 630.964 340.656C625.873 343.583 622.948 348.607 622.948 354.5H642.948ZM644.948 357.6C646.499 357.6 647.593 357.714 648.316 357.852C649.057 357.995 649.182 358.119 648.964 357.994C648.684 357.833 648.058 357.377 647.547 356.497C647.036 355.614 646.948 354.837 646.948 354.5H666.948C666.948 348.607 664.024 343.583 658.933 340.656C654.676 338.208 649.579 337.6 644.948 337.6V357.6ZM646.948 354.5V364.1H666.948V354.5H646.948ZM646.948 364.1C646.948 378.167 642.307 386.743 634.301 392.079L645.395 408.721C660.19 398.857 666.948 383.233 666.948 364.1H646.948ZM634.336 392.057C625.319 398.014 612.369 401.5 594.548 401.5V421.5C614.728 421.5 631.978 417.586 645.361 408.743L634.336 392.057ZM594.548 401.5C576.966 401.5 563.962 398.029 554.693 392.012L543.804 408.788C557.335 417.571 574.53 421.5 594.548 421.5V401.5ZM554.795 392.079C546.79 386.743 542.148 378.167 542.148 364.1H522.148C522.148 383.233 528.907 398.857 543.701 408.721L554.795 392.079ZM542.148 364.1V269.9H522.148V364.1H542.148ZM542.148 269.9C542.148 255.826 546.788 247.419 554.693 242.288L543.804 225.512C528.909 235.181 522.148 250.774 522.148 269.9H542.148ZM554.795 242.22C564.046 236.054 577.01 232.5 594.548 232.5V212.5C574.487 212.5 557.251 216.546 543.701 225.579L554.795 242.22ZM594.548 232.5C612.326 232.5 625.235 236.069 634.233 242.175L645.463 225.625C632.062 216.531 614.771 212.5 594.548 212.5V232.5ZM634.404 242.288C642.309 247.419 646.948 255.826 646.948 269.9H666.948C666.948 250.774 660.188 235.181 645.293 225.512L634.404 242.288ZM646.948 269.9V279.5H666.948V269.9H646.948ZM646.948 279.5C646.948 279.163 647.036 278.386 647.547 277.503C648.058 276.623 648.684 276.167 648.964 276.006C649.182 275.881 649.057 276.005 648.316 276.148C647.593 276.286 646.499 276.4 644.948 276.4V296.4C649.579 296.4 654.676 295.792 658.933 293.344C664.024 290.417 666.948 285.393 666.948 279.5H646.948ZM644.948 276.4C643.398 276.4 642.304 276.286 641.581 276.148C640.84 276.005 640.715 275.881 640.933 276.006C641.213 276.167 641.839 276.623 642.35 277.503C642.861 278.386 642.948 279.163 642.948 279.5H622.948C622.948 285.393 625.873 290.417 630.964 293.344C635.221 295.792 640.318 296.4 644.948 296.4V276.4ZM642.948 279.5V266.9H622.948V279.5H642.948ZM642.948 266.9C642.948 255.785 638.076 246.614 628.552 240.811C619.832 235.497 608.038 233.5 594.548 233.5V253.5C606.658 253.5 614.065 255.403 618.145 257.889C621.421 259.886 622.948 262.415 622.948 266.9H642.948ZM594.548 233.5C581.058 233.5 569.265 235.497 560.545 240.811C551.021 246.614 546.148 255.785 546.148 266.9H566.148C566.148 262.415 567.676 259.886 570.952 257.889C575.032 255.403 582.438 253.5 594.548 253.5V233.5ZM823.059 400.4L828.372 408.872L828.423 408.84L828.474 408.807L823.059 400.4ZM728.559 400.4L723.145 408.807L723.227 408.86L723.31 408.912L728.559 400.4ZM728.559 233.9L733.872 242.372L733.923 242.34L733.974 242.307L728.559 233.9ZM822.759 233.9L817.345 242.307L817.427 242.36L817.51 242.412L822.759 233.9ZM826.759 367.1V266.9H806.759V367.1H826.759ZM826.759 266.9C826.759 255.459 821.364 246.315 811.432 240.66C802.336 235.481 789.98 233.5 775.659 233.5V253.5C788.738 253.5 796.933 255.419 801.537 258.04C805.304 260.185 806.759 262.741 806.759 266.9H826.759ZM775.659 233.5C761.431 233.5 749.139 235.483 740.084 240.675C730.196 246.347 724.859 255.495 724.859 266.9H744.859C744.859 262.705 746.323 260.153 750.034 258.025C754.58 255.417 762.688 253.5 775.659 253.5V233.5ZM724.859 266.9V367.1H744.859V266.9H724.859ZM724.859 367.1C724.859 378.505 730.196 387.653 740.084 393.325C749.139 398.517 761.431 400.5 775.659 400.5V380.5C762.688 380.5 754.58 378.583 750.034 375.975C746.323 373.847 744.859 371.295 744.859 367.1H724.859ZM775.659 400.5C789.98 400.5 802.336 398.519 811.432 393.34C821.364 387.685 826.759 378.541 826.759 367.1H806.759C806.759 371.259 805.304 373.815 801.537 375.96C796.933 378.581 788.738 380.5 775.659 380.5V400.5ZM830.759 269.9V364.1H850.759V269.9H830.759ZM830.759 364.1C830.759 378.022 826.029 386.593 817.645 391.993L828.474 408.807C843.69 399.007 850.759 383.378 850.759 364.1H830.759ZM817.746 391.928C808.062 398.002 794.411 401.5 775.959 401.5V421.5C796.708 421.5 814.457 417.598 828.372 408.872L817.746 391.928ZM775.959 401.5C757.52 401.5 743.729 398.006 733.808 391.888L723.31 408.912C737.389 417.594 755.199 421.5 775.959 421.5V401.5ZM733.974 391.993C725.59 386.593 720.859 378.022 720.859 364.1H700.859C700.859 383.378 707.929 399.007 723.145 408.807L733.974 391.993ZM720.859 364.1V269.9H700.859V364.1H720.859ZM720.859 269.9C720.859 255.973 725.586 247.569 733.872 242.372L723.246 225.428C707.933 235.031 700.859 250.627 700.859 269.9H720.859ZM733.974 242.307C743.639 236.083 757.248 232.5 775.659 232.5V212.5C754.87 212.5 737.08 216.517 723.145 225.493L733.974 242.307ZM775.659 232.5C794.07 232.5 807.68 236.083 817.345 242.307L828.174 225.493C814.239 216.517 796.448 212.5 775.659 212.5V232.5ZM817.51 242.412C825.991 247.641 830.759 256.047 830.759 269.9H850.759C850.759 250.553 843.528 234.959 828.008 225.388L817.51 242.412ZM1012.9 400.4L1018.22 408.872L1018.27 408.84L1018.32 408.807L1012.9 400.4ZM918.403 400.4L912.988 408.807L913.071 408.86L913.154 408.912L918.403 400.4ZM918.403 233.9L923.716 242.372L923.767 242.34L923.818 242.307L918.403 233.9ZM1012.6 233.9L1007.19 242.307L1007.27 242.36L1007.35 242.412L1012.6 233.9ZM1016.6 367.1V266.9H996.603V367.1H1016.6ZM1016.6 266.9C1016.6 255.459 1011.21 246.315 1001.28 240.66C992.18 235.481 979.824 233.5 965.503 233.5V253.5C978.582 253.5 986.776 255.419 991.38 258.04C995.148 260.185 996.603 262.741 996.603 266.9H1016.6ZM965.503 233.5C951.275 233.5 938.982 235.483 929.928 240.675C920.039 246.347 914.703 255.495 914.703 266.9H934.703C934.703 262.705 936.167 260.153 939.878 258.025C944.424 255.417 952.531 253.5 965.503 253.5V233.5ZM914.703 266.9V367.1H934.703V266.9H914.703ZM914.703 367.1C914.703 378.505 920.039 387.653 929.928 393.325C938.982 398.517 951.275 400.5 965.503 400.5V380.5C952.531 380.5 944.424 378.583 939.878 375.975C936.167 373.847 934.703 371.295 934.703 367.1H914.703ZM965.503 400.5C979.824 400.5 992.18 398.519 1001.28 393.34C1011.21 387.685 1016.6 378.541 1016.6 367.1H996.603C996.603 371.259 995.148 373.815 991.38 375.96C986.776 378.581 978.582 380.5 965.503 380.5V400.5ZM1020.6 269.9V364.1H1040.6V269.9H1020.6ZM1020.6 364.1C1020.6 378.022 1015.87 386.593 1007.49 391.993L1018.32 408.807C1033.53 399.007 1040.6 383.378 1040.6 364.1H1020.6ZM1007.59 391.928C997.905 398.002 984.255 401.5 965.803 401.5V421.5C986.551 421.5 1004.3 417.598 1018.22 408.872L1007.59 391.928ZM965.803 401.5C947.364 401.5 933.573 398.006 923.652 391.888L913.154 408.912C927.233 417.594 945.043 421.5 965.803 421.5V401.5ZM923.818 391.993C915.434 386.593 910.703 378.022 910.703 364.1H890.703C890.703 383.378 897.772 399.007 912.988 408.807L923.818 391.993ZM910.703 364.1V269.9H890.703V364.1H910.703ZM910.703 269.9C910.703 255.973 915.429 247.569 923.716 242.372L913.09 225.428C897.777 235.031 890.703 250.627 890.703 269.9H910.703ZM923.818 242.307C933.482 236.083 947.092 232.5 965.503 232.5V212.5C944.714 212.5 926.924 216.517 912.988 225.493L923.818 242.307ZM965.503 232.5C983.914 232.5 997.524 236.083 1007.19 242.307L1018.02 225.493C1004.08 216.517 986.292 212.5 965.503 212.5V232.5ZM1007.35 242.412C1015.83 247.641 1020.6 256.047 1020.6 269.9H1040.6C1040.6 250.553 1033.37 234.959 1017.85 225.388L1007.35 242.412ZM1111.25 233.9L1116.56 242.372L1116.61 242.34L1116.66 242.307L1111.25 233.9ZM1205.45 233.9L1200.03 242.307L1200.11 242.36L1200.2 242.412L1205.45 233.9ZM1213.45 269.9V401.6H1233.45V269.9H1213.45ZM1213.45 401.6C1213.45 401.263 1213.53 400.486 1214.05 399.603C1214.56 398.723 1215.18 398.267 1215.46 398.106C1215.68 397.981 1215.56 398.105 1214.81 398.248C1214.09 398.386 1213 398.5 1211.45 398.5V418.5C1216.08 418.5 1221.17 417.892 1225.43 415.444C1230.52 412.517 1233.45 407.493 1233.45 401.6H1213.45ZM1211.45 398.5C1209.9 398.5 1208.8 398.386 1208.08 398.248C1207.34 398.105 1207.21 397.981 1207.43 398.106C1207.71 398.267 1208.34 398.723 1208.85 399.603C1209.36 400.486 1209.45 401.263 1209.45 401.6H1189.45C1189.45 407.493 1192.37 412.517 1197.46 415.444C1201.72 417.892 1206.82 418.5 1211.45 418.5V398.5ZM1209.45 401.6V266.9H1189.45V401.6H1209.45ZM1209.45 266.9C1209.45 255.459 1204.05 246.315 1194.12 240.66C1185.02 235.481 1172.67 233.5 1158.35 233.5V253.5C1171.43 253.5 1179.62 255.419 1184.22 258.04C1187.99 260.185 1189.45 262.741 1189.45 266.9H1209.45ZM1158.35 233.5C1144.12 233.5 1131.83 235.483 1122.77 240.675C1112.88 246.347 1107.55 255.495 1107.55 266.9H1127.55C1127.55 262.705 1129.01 260.153 1132.72 258.025C1137.27 255.417 1145.38 253.5 1158.35 253.5V233.5ZM1107.55 266.9V401.6H1127.55V266.9H1107.55ZM1107.55 401.6C1107.55 401.263 1107.63 400.486 1108.15 399.603C1108.66 398.723 1109.28 398.267 1109.56 398.106C1109.78 397.981 1109.66 398.105 1108.91 398.248C1108.19 398.386 1107.1 398.5 1105.55 398.5V418.5C1110.18 418.5 1115.27 417.892 1119.53 415.444C1124.62 412.517 1127.55 407.493 1127.55 401.6H1107.55ZM1105.55 398.5C1104 398.5 1102.9 398.386 1102.18 398.248C1101.44 398.105 1101.31 397.981 1101.53 398.106C1101.81 398.267 1102.44 398.723 1102.95 399.603C1103.46 400.486 1103.55 401.263 1103.55 401.6H1083.55C1083.55 407.493 1086.47 412.517 1091.56 415.444C1095.82 417.892 1100.92 418.5 1105.55 418.5V398.5ZM1103.55 401.6V269.9H1083.55V401.6H1103.55ZM1103.55 269.9C1103.55 255.973 1108.27 247.569 1116.56 242.372L1105.93 225.428C1090.62 235.031 1083.55 250.627 1083.55 269.9H1103.55ZM1116.66 242.307C1126.33 236.083 1139.94 232.5 1158.35 232.5V212.5C1137.56 212.5 1119.77 216.517 1105.83 225.493L1116.66 242.307ZM1158.35 232.5C1176.76 232.5 1190.37 236.083 1200.03 242.307L1210.86 225.493C1196.93 216.517 1179.14 212.5 1158.35 212.5V232.5ZM1200.2 242.412C1208.68 247.641 1213.45 256.047 1213.45 269.9H1233.45C1233.45 250.553 1226.22 234.959 1210.7 225.388L1200.2 242.412Z" fill="white" mask="url(#path-1-outside-1_311_8)"/>
<mask id="path-3-outside-2_311_8" maskUnits="userSpaceOnUse" x="1265" y="122" width="68" height="76" fill="black">
<rect fill="white" x="1265" y="122" width="68" height="76"/>
<path d="M1290.94 196H1280.65C1275.49 196 1271.76 194.944 1269.47 192.832C1267.18 190.72 1266.04 187.141 1266.04 182.096V181.392C1266.04 176.405 1267.07 172.973 1269.12 171.096C1271.17 169.219 1274.84 168.016 1280.12 167.488L1295.34 165.992V156.224C1295.34 151.648 1291.35 149.36 1283.38 149.36H1271.32C1270.15 149.36 1269.56 148.333 1269.56 146.28C1269.56 144.227 1270.15 143.2 1271.32 143.2H1283.38C1289.13 143.2 1293.73 144.315 1297.19 146.544C1300.65 148.715 1302.38 152.235 1302.38 157.104V183.064C1302.38 186.877 1303.06 189.899 1304.41 192.128C1304.82 192.832 1305.02 193.272 1305.02 193.448C1305.02 194.152 1304.47 194.915 1303.35 195.736C1302.24 196.499 1301.3 196.88 1300.54 196.88C1299.25 196.88 1298.04 195.677 1296.93 193.272C1295.87 190.808 1295.34 187.699 1295.34 183.944V172.152L1280.65 173.648C1277.48 174 1275.43 174.704 1274.49 175.76C1273.55 176.816 1273.08 178.693 1273.08 181.392V182.096C1273.08 184.912 1273.55 186.907 1274.49 188.08C1275.49 189.253 1277.54 189.84 1280.65 189.84H1290.94C1292.12 189.84 1292.7 190.867 1292.7 192.92C1292.7 194.973 1292.12 196 1290.94 196ZM1328.74 144.784V185.704C1328.74 187.581 1329.18 189.341 1330.06 190.984C1330.94 192.568 1331.38 193.389 1331.38 193.448C1331.38 194.152 1330.83 194.915 1329.71 195.736C1328.6 196.499 1327.66 196.88 1326.9 196.88C1325.66 196.88 1324.49 195.824 1323.38 193.712C1322.26 191.541 1321.7 189.165 1321.7 186.584V144.784C1321.7 143.435 1322.88 142.76 1325.22 142.76C1327.57 142.76 1328.74 143.435 1328.74 144.784ZM1329.01 126.04V133.696C1329.01 135.163 1327.72 135.896 1325.14 135.896C1322.61 135.896 1321.35 135.163 1321.35 133.696V126.04C1321.35 124.573 1322.61 123.84 1325.14 123.84C1327.72 123.84 1329.01 124.573 1329.01 126.04Z"/>
</mask>
<path d="M1290.94 196H1280.65C1275.49 196 1271.76 194.944 1269.47 192.832C1267.18 190.72 1266.04 187.141 1266.04 182.096V181.392C1266.04 176.405 1267.07 172.973 1269.12 171.096C1271.17 169.219 1274.84 168.016 1280.12 167.488L1295.34 165.992V156.224C1295.34 151.648 1291.35 149.36 1283.38 149.36H1271.32C1270.15 149.36 1269.56 148.333 1269.56 146.28C1269.56 144.227 1270.15 143.2 1271.32 143.2H1283.38C1289.13 143.2 1293.73 144.315 1297.19 146.544C1300.65 148.715 1302.38 152.235 1302.38 157.104V183.064C1302.38 186.877 1303.06 189.899 1304.41 192.128C1304.82 192.832 1305.02 193.272 1305.02 193.448C1305.02 194.152 1304.47 194.915 1303.35 195.736C1302.24 196.499 1301.3 196.88 1300.54 196.88C1299.25 196.88 1298.04 195.677 1296.93 193.272C1295.87 190.808 1295.34 187.699 1295.34 183.944V172.152L1280.65 173.648C1277.48 174 1275.43 174.704 1274.49 175.76C1273.55 176.816 1273.08 178.693 1273.08 181.392V182.096C1273.08 184.912 1273.55 186.907 1274.49 188.08C1275.49 189.253 1277.54 189.84 1280.65 189.84H1290.94C1292.12 189.84 1292.7 190.867 1292.7 192.92C1292.7 194.973 1292.12 196 1290.94 196ZM1328.74 144.784V185.704C1328.74 187.581 1329.18 189.341 1330.06 190.984C1330.94 192.568 1331.38 193.389 1331.38 193.448C1331.38 194.152 1330.83 194.915 1329.71 195.736C1328.6 196.499 1327.66 196.88 1326.9 196.88C1325.66 196.88 1324.49 195.824 1323.38 193.712C1322.26 191.541 1321.7 189.165 1321.7 186.584V144.784C1321.7 143.435 1322.88 142.76 1325.22 142.76C1327.57 142.76 1328.74 143.435 1328.74 144.784ZM1329.01 126.04V133.696C1329.01 135.163 1327.72 135.896 1325.14 135.896C1322.61 135.896 1321.35 135.163 1321.35 133.696V126.04C1321.35 124.573 1322.61 123.84 1325.14 123.84C1327.72 123.84 1329.01 124.573 1329.01 126.04Z" fill="white"/>
<path d="M1269.47 192.832L1268.79 193.567L1268.79 193.567L1269.47 192.832ZM1269.12 171.096L1268.45 170.358L1268.45 170.358L1269.12 171.096ZM1280.12 167.488L1280.02 166.493L1280.02 166.493L1280.12 167.488ZM1295.34 165.992L1295.44 166.987L1296.34 166.899V165.992H1295.34ZM1297.19 146.544L1296.65 147.385L1296.66 147.391L1297.19 146.544ZM1304.41 192.128L1305.27 191.624L1305.27 191.617L1305.26 191.61L1304.41 192.128ZM1303.35 195.736L1303.92 196.561L1303.93 196.551L1303.95 196.541L1303.35 195.736ZM1296.93 193.272L1296.01 193.666L1296.01 193.679L1296.02 193.692L1296.93 193.272ZM1295.34 172.152H1296.34V171.045L1295.24 171.157L1295.34 172.152ZM1280.65 173.648L1280.55 172.653L1280.54 172.654L1280.65 173.648ZM1274.49 175.76L1275.24 176.424L1275.24 176.424L1274.49 175.76ZM1274.49 188.08L1273.71 188.705L1273.72 188.716L1273.73 188.728L1274.49 188.08ZM1290.94 195H1280.65V197H1290.94V195ZM1280.65 195C1275.58 195 1272.16 193.957 1270.15 192.097L1268.79 193.567C1271.36 195.931 1275.39 197 1280.65 197V195ZM1270.15 192.097C1268.16 190.264 1267.04 187.03 1267.04 182.096H1265.04C1265.04 187.253 1266.2 191.176 1268.79 193.567L1270.15 192.097ZM1267.04 182.096V181.392H1265.04V182.096H1267.04ZM1267.04 181.392C1267.04 176.48 1268.06 173.417 1269.79 171.834L1268.45 170.358C1266.07 172.53 1265.04 176.331 1265.04 181.392H1267.04ZM1269.79 171.834C1271.6 170.185 1274.99 169.006 1280.22 168.483L1280.02 166.493C1274.69 167.026 1270.75 168.253 1268.45 170.358L1269.79 171.834ZM1280.22 168.483L1295.44 166.987L1295.25 164.997L1280.02 166.493L1280.22 168.483ZM1296.34 165.992V156.224H1294.34V165.992H1296.34ZM1296.34 156.224C1296.34 153.575 1295.15 151.53 1292.85 150.209C1290.63 148.935 1287.43 148.36 1283.38 148.36V150.36C1287.3 150.36 1290.09 150.929 1291.85 151.943C1293.54 152.91 1294.34 154.297 1294.34 156.224H1296.34ZM1283.38 148.36H1271.32V150.36H1283.38V148.36ZM1271.32 148.36C1271.1 148.36 1270.99 148.299 1270.87 148.094C1270.7 147.806 1270.56 147.244 1270.56 146.28H1268.56C1268.56 147.369 1268.71 148.348 1269.13 149.086C1269.6 149.908 1270.37 150.36 1271.32 150.36V148.36ZM1270.56 146.28C1270.56 145.316 1270.7 144.754 1270.87 144.466C1270.99 144.261 1271.1 144.2 1271.32 144.2V142.2C1270.37 142.2 1269.6 142.652 1269.13 143.474C1268.71 144.212 1268.56 145.191 1268.56 146.28H1270.56ZM1271.32 144.2H1283.38V142.2H1271.32V144.2ZM1283.38 144.2C1289.01 144.2 1293.4 145.293 1296.65 147.385L1297.73 145.703C1294.06 143.336 1289.24 142.2 1283.38 142.2V144.2ZM1296.66 147.391C1299.77 149.342 1301.38 152.502 1301.38 157.104H1303.38C1303.38 151.967 1301.54 148.088 1297.72 145.697L1296.66 147.391ZM1301.38 157.104V183.064H1303.38V157.104H1301.38ZM1301.38 183.064C1301.38 186.981 1302.07 190.204 1303.55 192.646L1305.26 191.61C1304.04 189.593 1303.38 186.774 1303.38 183.064H1301.38ZM1303.54 192.632C1303.74 192.973 1303.88 193.229 1303.96 193.409C1304.01 193.499 1304.03 193.555 1304.04 193.583C1304.05 193.629 1304.02 193.567 1304.02 193.448H1306.02C1306.02 193.241 1305.97 193.058 1305.93 192.95C1305.89 192.824 1305.84 192.693 1305.78 192.563C1305.65 192.303 1305.48 191.987 1305.27 191.624L1303.54 192.632ZM1304.02 193.448C1304.02 193.631 1303.84 194.131 1302.76 194.931L1303.95 196.541C1305.09 195.699 1306.02 194.673 1306.02 193.448H1304.02ZM1302.79 194.911C1301.73 195.637 1300.99 195.88 1300.54 195.88V197.88C1301.6 197.88 1302.75 197.361 1303.92 196.561L1302.79 194.911ZM1300.54 195.88C1300.23 195.88 1299.85 195.747 1299.37 195.271C1298.89 194.786 1298.37 194 1297.84 192.852L1296.02 193.692C1296.6 194.949 1297.24 195.968 1297.96 196.685C1298.69 197.412 1299.55 197.88 1300.54 197.88V195.88ZM1297.85 192.878C1296.86 190.578 1296.34 187.614 1296.34 183.944H1294.34C1294.34 187.784 1294.88 191.038 1296.01 193.666L1297.85 192.878ZM1296.34 183.944V172.152H1294.34V183.944H1296.34ZM1295.24 171.157L1280.55 172.653L1280.75 174.643L1295.45 173.147L1295.24 171.157ZM1280.54 172.654C1278.91 172.835 1277.53 173.11 1276.41 173.494C1275.3 173.874 1274.37 174.388 1273.74 175.096L1275.24 176.424C1275.54 176.076 1276.11 175.71 1277.06 175.386C1277.99 175.066 1279.22 174.813 1280.76 174.642L1280.54 172.654ZM1273.74 175.096C1272.54 176.441 1272.08 178.643 1272.08 181.392H1274.08C1274.08 178.744 1274.55 177.191 1275.24 176.424L1273.74 175.096ZM1272.08 181.392V182.096H1274.08V181.392H1272.08ZM1272.08 182.096C1272.08 184.966 1272.55 187.255 1273.71 188.705L1275.27 187.455C1274.55 186.559 1274.08 184.858 1274.08 182.096H1272.08ZM1273.73 188.728C1274.39 189.513 1275.36 190.034 1276.5 190.362C1277.65 190.689 1279.04 190.84 1280.65 190.84V188.84C1279.15 188.84 1277.96 188.698 1277.05 188.438C1276.14 188.179 1275.58 187.821 1275.25 187.432L1273.73 188.728ZM1280.65 190.84H1290.94V188.84H1280.65V190.84ZM1290.94 190.84C1291.17 190.84 1291.28 190.901 1291.4 191.106C1291.56 191.394 1291.7 191.956 1291.7 192.92H1293.7C1293.7 191.831 1293.55 190.852 1293.13 190.114C1292.66 189.292 1291.89 188.84 1290.94 188.84V190.84ZM1291.7 192.92C1291.7 193.884 1291.56 194.446 1291.4 194.734C1291.28 194.939 1291.17 195 1290.94 195V197C1291.89 197 1292.66 196.548 1293.13 195.726C1293.55 194.988 1293.7 194.009 1293.7 192.92H1291.7ZM1330.06 190.984L1329.18 191.456L1329.19 191.463L1329.19 191.47L1330.06 190.984ZM1329.71 195.736L1330.28 196.561L1330.29 196.551L1330.3 196.541L1329.71 195.736ZM1323.38 193.712L1322.49 194.169L1322.49 194.179L1323.38 193.712ZM1327.74 144.784V185.704H1329.74V144.784H1327.74ZM1327.74 185.704C1327.74 187.745 1328.22 189.667 1329.18 191.456L1330.94 190.512C1330.14 189.015 1329.74 187.418 1329.74 185.704H1327.74ZM1329.19 191.47C1329.63 192.261 1329.96 192.856 1330.17 193.26C1330.28 193.463 1330.36 193.611 1330.41 193.708C1330.43 193.758 1330.44 193.785 1330.45 193.794C1330.45 193.8 1330.44 193.787 1330.44 193.764C1330.43 193.753 1330.42 193.727 1330.41 193.691C1330.41 193.67 1330.38 193.575 1330.38 193.448H1332.38C1332.38 193.318 1332.36 193.217 1332.35 193.19C1332.34 193.147 1332.33 193.113 1332.32 193.092C1332.3 193.049 1332.29 193.012 1332.28 192.987C1332.25 192.934 1332.23 192.874 1332.2 192.814C1332.13 192.691 1332.05 192.523 1331.93 192.316C1331.71 191.898 1331.38 191.291 1330.94 190.498L1329.19 191.47ZM1330.38 193.448C1330.38 193.631 1330.2 194.131 1329.12 194.931L1330.3 196.541C1331.45 195.699 1332.38 194.673 1332.38 193.448H1330.38ZM1329.15 194.911C1328.09 195.637 1327.35 195.88 1326.9 195.88V197.88C1327.96 197.88 1329.11 197.361 1330.28 196.561L1329.15 194.911ZM1326.9 195.88C1326.28 195.88 1325.36 195.331 1324.26 193.245L1322.49 194.179C1323.62 196.317 1325.04 197.88 1326.9 197.88V195.88ZM1324.27 193.255C1323.23 191.234 1322.7 189.016 1322.7 186.584H1320.7C1320.7 189.315 1321.29 191.849 1322.49 194.169L1324.27 193.255ZM1322.7 186.584V144.784H1320.7V186.584H1322.7ZM1322.7 144.784C1322.7 144.469 1322.8 144.293 1323.08 144.133C1323.44 143.925 1324.11 143.76 1325.22 143.76V141.76C1323.99 141.76 1322.9 141.932 1322.08 142.399C1321.19 142.914 1320.7 143.75 1320.7 144.784H1322.7ZM1325.22 143.76C1326.33 143.76 1327 143.925 1327.36 144.133C1327.64 144.293 1327.74 144.469 1327.74 144.784H1329.74C1329.74 143.75 1329.26 142.914 1328.36 142.399C1327.55 141.932 1326.46 141.76 1325.22 141.76V143.76ZM1328.01 126.04V133.696H1330.01V126.04H1328.01ZM1328.01 133.696C1328.01 134.064 1327.88 134.285 1327.55 134.477C1327.12 134.716 1326.36 134.896 1325.14 134.896V136.896C1326.49 136.896 1327.66 136.71 1328.53 136.215C1329.49 135.674 1330.01 134.794 1330.01 133.696H1328.01ZM1325.14 134.896C1323.94 134.896 1323.2 134.716 1322.8 134.481C1322.48 134.295 1322.35 134.075 1322.35 133.696H1320.35C1320.35 134.783 1320.85 135.664 1321.79 136.211C1322.65 136.709 1323.81 136.896 1325.14 136.896V134.896ZM1322.35 133.696V126.04H1320.35V133.696H1322.35ZM1322.35 126.04C1322.35 125.661 1322.48 125.441 1322.8 125.255C1323.2 125.02 1323.94 124.84 1325.14 124.84V122.84C1323.81 122.84 1322.65 123.027 1321.79 123.525C1320.85 124.072 1320.35 124.953 1320.35 126.04H1322.35ZM1325.14 124.84C1326.36 124.84 1327.12 125.02 1327.55 125.259C1327.88 125.451 1328.01 125.672 1328.01 126.04H1330.01C1330.01 124.942 1329.49 124.062 1328.53 123.521C1327.66 123.026 1326.49 122.84 1325.14 122.84V124.84Z" fill="white" mask="url(#path-3-outside-2_311_8)"/>
</svg>
