<svg width="780" height="604" viewBox="0 0 780 604" fill="none" xmlns="http://www.w3.org/2000/svg">
<path d="M533.85 568.464C539.19 574.344 544 577.544 548.28 579.154C552.56 580.764 556.83 579.684 560.57 577.014C565.38 572.204 570.19 564.724 574.46 555.104C584.61 531.064 589.95 498.474 591.56 480.304C592.63 467.484 593.16 454.654 593.16 443.444C594.23 394.294 594.76 360.634 657.81 350.484C713.37 341.934 743.29 315.224 752.38 280.494C757.72 260.724 756.12 238.284 748.64 214.774C740.63 190.734 726.73 166.154 706.97 142.644C641.25 64.1041 513.56 2.1341 350.61 30.9841C287.03 42.2041 226.12 66.7841 173.23 103.644C122.47 138.374 79.73 183.784 50.35 238.284C36.46 262.864 27.38 287.434 24.71 308.804C22.04 327.504 24.18 344.064 32.19 355.824C40.74 368.644 57.3 377.194 82.41 379.334C107.52 380.934 140.65 375.594 183.39 362.234C209.57 353.684 236.82 342.464 263 330.714C222.93 295.454 196.22 245.764 190.34 204.094C187.67 185.394 188.74 168.294 194.61 154.404C200.49 138.914 211.71 127.154 227.73 120.214C254.98 108.994 297.72 112.734 358.63 142.654C371.45 148.534 384.81 154.944 397.63 161.354C465.48 103.114 526.92 93.5041 574.47 106.854C617.75 119.144 649.27 150.134 663.69 182.184C680.25 216.374 677.05 252.174 649.26 268.204C628.42 279.954 594.23 279.424 545.08 256.984C519.43 245.764 489.52 231.874 458.53 216.914C439.3 207.834 420.06 198.744 401.36 189.664C392.81 197.674 384.26 206.224 375.72 215.844C358.09 235.074 337.25 268.204 321.22 304.534C356.48 288.504 388 274.614 413.65 269.804C475.63 256.984 516.23 275.144 537.6 302.394C551.49 320.024 557.37 341.394 556.3 361.694C554.7 381.994 546.68 401.764 531.19 414.584C511.42 432.754 479.9 439.164 439.83 422.064C433.95 419.394 423.8 415.114 413.12 410.844C374.65 394.814 336.18 378.784 301.46 357.954C300.93 359.024 300.93 359.554 300.93 360.624C294.52 383.064 291.85 404.434 295.05 421.534C297.19 436.494 304.13 448.244 316.96 454.654C326.04 458.924 339.4 460.534 357.03 458.924C451.06 448.774 474.04 484.574 502.35 526.774C511.43 540.664 521.05 555.094 533.87 568.444L533.85 568.464ZM539.72 601.054C532.77 598.384 524.76 593.574 516.75 585.024C502.32 570.064 492.17 554.574 482.02 539.614C458.51 503.814 438.74 473.894 359.14 482.444C337.23 484.584 320.14 481.914 306.78 476.034C285.94 465.884 275.26 448.254 271.52 425.274C268.31 404.434 270.99 379.864 277.93 354.754C278.46 353.154 279 351.014 279 349.414C250.15 362.234 220.23 375.064 190.85 384.674C144.9 399.104 108.57 404.444 80.79 402.844C47.13 400.704 25.23 387.884 12.4 368.654C1.17997 351.554 -2.03 330.184 1.18 305.614C4.39 281.574 14.54 254.324 29.5 226.544C61.02 169.374 106.44 120.754 159.86 83.8941C215.42 45.4241 280.07 19.2441 346.32 7.49411C518.89 -22.9559 654.59 43.8241 725.12 127.704C747.03 153.344 762.52 180.594 771.07 207.844C780.15 235.094 781.76 262.344 775.34 286.914C763.59 330.194 727.26 363.314 661.54 374.004C618.26 380.954 617.73 406.594 616.66 443.994C616.66 455.744 616.13 468.574 615.06 482.464C612.92 502.234 607.58 538.024 595.83 564.744C590.49 577.034 584.08 587.714 575.53 594.664C565.38 603.214 553.62 606.414 539.73 601.074L539.72 601.054ZM289.69 318.964C307.86 271.414 335.64 224.934 358.08 199.824C365.03 192.344 371.97 185.394 378.92 178.454C368.23 173.644 358.08 168.834 348.47 164.024C294.51 137.314 258.18 133.034 236.81 142.114C227.19 146.384 220.25 153.334 216.51 162.954C212.24 173.104 211.7 186.464 213.84 200.884C219.72 245.764 254.44 291.714 289.71 318.954L289.69 318.964ZM312.12 334.454L309.98 335.524C344.17 356.364 383.18 372.924 422.18 388.954C429.66 392.164 437.14 395.364 448.89 400.174C479.34 413.534 501.78 409.254 515.67 396.964C525.82 388.414 531.7 374.524 532.77 360.104C533.3 345.674 529.03 329.654 519.41 317.364C502.85 295.994 469.72 282.104 417.9 292.784C391.19 298.124 353.25 315.754 312.11 334.454H312.12ZM421.12 172.574C437.15 180.584 453.18 188.064 468.14 195.544C499.13 209.974 529.05 223.864 554.69 235.614C596.36 254.314 623.08 255.914 637.5 247.364C652.99 238.284 653.53 215.304 642.31 191.804C630.02 165.624 603.84 139.444 568.05 129.824C529.05 118.604 478.29 126.614 421.13 172.564L421.12 172.574Z" fill="white"/>
<path style="mix-blend-mode:multiply" d="M323.88 370.254C316.4 366.514 308.919 362.244 301.439 357.964C303.039 353.154 305.18 343.534 309.99 335.524C316.4 339.264 323.35 343.534 330.29 347.274C327.62 354.754 325.48 362.234 323.88 370.244V370.254Z" fill="white"/>
<path style="mix-blend-mode:multiply" d="M262.97 330.714C252.28 321.094 242.13 310.414 233.59 299.194C241.6 295.984 249.62 292.244 257.63 288.504C267.78 300.254 278.47 310.414 289.69 318.954C281.68 322.694 272.59 326.434 262.98 330.704L262.97 330.714Z" fill="white"/>
<path style="mix-blend-mode:multiply" d="M421.12 172.574C414.2 178.434 407.81 183.764 401.41 189.614L401.45 189.724C411.03 194.514 420.62 198.774 430.73 203.564C436.61 198.224 443.55 192.344 450.5 187.004C440.88 182.194 431.27 177.384 421.12 172.574Z" fill="white"/>
</svg>
