<svg width="780" height="604" viewBox="0 0 780 604" fill="none" xmlns="http://www.w3.org/2000/svg">
<path d="M534.24 568.48C539.58 574.36 544.39 577.56 548.67 579.17C552.95 580.78 557.22 579.7 560.96 577.03C565.77 572.22 570.58 564.74 574.85 555.12C585 531.08 590.34 498.49 591.95 480.32C593.02 467.5 593.55 454.67 593.55 443.46C594.62 394.31 595.15 360.65 658.2 350.5C713.76 341.95 743.68 315.24 752.77 280.51C758.11 260.74 756.51 238.3 749.03 214.79C741.02 190.75 727.12 166.17 707.36 142.66C641.64 64.1202 513.95 2.15021 351 31.0002C287.42 42.2202 226.51 66.8002 173.62 103.66C122.86 138.39 80.1196 183.8 50.7396 238.3C36.8496 262.88 27.7696 287.45 25.0996 308.82C22.4296 327.52 24.5697 344.08 32.5797 355.84C41.1297 368.66 57.6896 377.21 82.7996 379.35C107.91 380.95 141.04 375.61 183.78 362.25C209.96 353.7 237.21 342.48 263.39 330.73C223.32 295.47 196.61 245.78 190.73 204.11C188.06 185.41 189.13 168.31 195 154.42C200.88 138.93 212.1 127.17 228.12 120.23C255.37 109.01 298.11 112.75 359.02 142.67C371.84 148.55 385.2 154.96 398.02 161.37C465.87 103.13 527.31 93.5202 574.86 106.87C618.14 119.16 649.66 150.15 664.08 182.2C680.64 216.39 677.44 252.19 649.65 268.22C628.81 279.97 594.62 279.44 545.47 257C519.82 245.78 489.91 231.89 458.92 216.93C439.69 207.85 420.45 198.76 401.75 189.68C393.2 197.69 384.65 206.24 376.11 215.86C358.48 235.09 337.64 268.22 321.61 304.55C356.87 288.52 388.39 274.63 414.04 269.82C476.02 257 516.62 275.16 537.99 302.41C551.88 320.04 557.76 341.41 556.69 361.71C555.09 382.01 547.07 401.78 531.58 414.6C511.81 432.77 480.29 439.18 440.22 422.08C434.34 419.41 424.19 415.13 413.51 410.86C375.04 394.83 336.57 378.8 301.85 357.97C301.32 359.04 301.32 359.57 301.32 360.64C294.91 383.08 292.24 404.45 295.44 421.55C297.58 436.51 304.52 448.26 317.35 454.67C326.43 458.94 339.79 460.55 357.42 458.94C451.45 448.79 474.43 484.59 502.74 526.79C511.82 540.68 521.44 555.11 534.26 568.46L534.24 568.48ZM540.11 601.07C533.16 598.4 525.15 593.59 517.14 585.04C502.71 570.08 492.56 554.59 482.41 539.63C458.9 503.83 439.13 473.91 359.53 482.46C337.62 484.6 320.53 481.93 307.17 476.05C286.33 465.9 275.65 448.27 271.91 425.29C268.7 404.45 271.38 379.88 278.32 354.77C278.85 353.17 279.39 351.03 279.39 349.43C250.54 362.25 220.62 375.08 191.24 384.69C145.29 399.12 108.96 404.46 81.1796 402.86C47.5196 400.72 25.6196 387.9 12.7896 368.67C1.56962 351.57 -1.64035 330.2 1.56965 305.63C4.77965 281.59 14.9297 254.34 29.8897 226.56C61.4097 169.39 106.83 120.77 160.25 83.9102C215.81 45.4402 280.46 19.2602 346.71 7.51022C519.28 -22.9398 654.98 43.8402 725.51 127.72C747.42 153.36 762.91 180.61 771.46 207.86C780.54 235.11 782.15 262.36 775.73 286.93C763.98 330.21 727.65 363.33 661.93 374.02C618.65 380.97 618.12 406.61 617.05 444.01C617.05 455.76 616.52 468.59 615.45 482.48C613.31 502.25 607.97 538.04 596.22 564.76C590.88 577.05 584.47 587.73 575.92 594.68C565.77 603.23 554.01 606.43 540.12 601.09L540.11 601.07ZM290.08 318.98C308.25 271.43 336.03 224.95 358.47 199.84C365.42 192.36 372.36 185.41 379.31 178.47C368.62 173.66 358.47 168.85 348.86 164.04C294.9 137.33 258.57 133.05 237.2 142.13C227.58 146.4 220.64 153.35 216.9 162.97C212.63 173.12 212.09 186.48 214.23 200.9C220.11 245.78 254.83 291.73 290.1 318.97L290.08 318.98ZM312.51 334.47L310.37 335.54C344.56 356.38 383.57 372.94 422.57 388.97C430.05 392.18 437.53 395.38 449.28 400.19C479.73 413.55 502.17 409.27 516.06 396.98C526.21 388.43 532.09 374.54 533.16 360.12C533.69 345.69 529.42 329.67 519.8 317.38C503.24 296.01 470.11 282.12 418.29 292.8C391.58 298.14 353.64 315.77 312.5 334.47H312.51ZM421.51 172.59C437.54 180.6 453.57 188.08 468.53 195.56C499.52 209.99 529.44 223.88 555.08 235.63C596.75 254.33 623.47 255.93 637.89 247.38C653.38 238.3 653.92 215.32 642.7 191.82C630.41 165.64 604.23 139.46 568.44 129.84C529.44 118.62 478.68 126.63 421.52 172.58L421.51 172.59Z" fill="url(#paint0_linear_337_24)"/>
<path style="mix-blend-mode:multiply" d="M324.27 370.27C316.79 366.53 309.31 362.26 301.83 357.98C303.43 353.17 305.57 343.55 310.38 335.54C316.79 339.28 323.74 343.55 330.68 347.29C328.01 354.77 325.87 362.25 324.27 370.26V370.27Z" fill="url(#paint1_linear_337_24)"/>
<path style="mix-blend-mode:multiply" d="M263.359 330.73C252.669 321.11 242.519 310.43 233.979 299.21C241.989 296 250.01 292.26 258.02 288.52C268.17 300.27 278.859 310.43 290.079 318.97C282.069 322.71 272.98 326.45 263.37 330.72L263.359 330.73Z" fill="url(#paint2_linear_337_24)"/>
<path style="mix-blend-mode:multiply" d="M421.51 172.59C414.59 178.45 408.2 183.78 401.8 189.63L401.84 189.74C411.42 194.53 421.01 198.79 431.12 203.58C437 198.24 443.94 192.36 450.89 187.02C441.27 182.21 431.66 177.4 421.51 172.59Z" fill="url(#paint3_linear_337_24)"/>
<defs>
<linearGradient id="paint0_linear_337_24" x1="567.29" y1="606.28" x2="230.51" y2="-12.1598" gradientUnits="userSpaceOnUse">
<stop stop-color="#DE8C54"/>
<stop offset="0.31" stop-color="#C2428D"/>
<stop offset="0.59" stop-color="#5784F9"/>
<stop offset="1" stop-color="#16E9C0"/>
</linearGradient>
<linearGradient id="paint1_linear_337_24" x1="290.9" y1="336.98" x2="324.69" y2="357.84" gradientUnits="userSpaceOnUse">
<stop offset="0.32"/>
<stop offset="0.38" stop-color="#080808"/>
<stop offset="0.47" stop-color="#1F1F1F"/>
<stop offset="0.59" stop-color="#464646"/>
<stop offset="0.72" stop-color="#7B7B7B"/>
<stop offset="0.87" stop-color="#BDBDBD"/>
<stop offset="1" stop-color="white"/>
</linearGradient>
<linearGradient id="paint2_linear_337_24" x1="294.439" y1="344.87" x2="261.789" y2="309.49" gradientUnits="userSpaceOnUse">
<stop offset="0.38"/>
<stop offset="0.43" stop-color="#080808"/>
<stop offset="0.52" stop-color="#1F1F1F"/>
<stop offset="0.62" stop-color="#464646"/>
<stop offset="0.74" stop-color="#7B7B7B"/>
<stop offset="0.88" stop-color="#BDBDBD"/>
<stop offset="1" stop-color="white"/>
</linearGradient>
<linearGradient id="paint3_linear_337_24" x1="389.19" y1="165.14" x2="432.73" y2="192.35" gradientUnits="userSpaceOnUse">
<stop offset="0.58"/>
<stop offset="0.62" stop-color="#080808"/>
<stop offset="0.67" stop-color="#1F1F1F"/>
<stop offset="0.74" stop-color="#454545"/>
<stop offset="0.83" stop-color="#7A7A7A"/>
<stop offset="0.92" stop-color="#BDBDBD"/>
<stop offset="1" stop-color="white"/>
</linearGradient>
</defs>
</svg>
